<?xml version="1.0" standalone="no"?>
<!DOCTYPE svg PUBLIC "-//W3C//DTD SVG 20010904//EN"
 "http://www.w3.org/TR/2001/REC-SVG-20010904/DTD/svg10.dtd">
<svg version="1.0" xmlns="http://www.w3.org/2000/svg"
 width="500.000000pt" height="500.000000pt" viewBox="0 0 500.000000 500.000000"
 preserveAspectRatio="xMidYMid meet">
<metadata>
Created by potrace 1.14, written by Peter Selinger 2001-2017
</metadata>
<g transform="translate(0.000000,500.000000) scale(0.100000,-0.100000)"
fill="#000000" stroke="none">
<path d="M2195 4554 c-167 -26 -450 -102 -495 -135 -17 -12 -25 -14 147 37
143 42 341 81 498 99 l120 13 -90 0 c-49 0 -130 -6 -180 -14z"/>
<path d="M2373 4509 c-5 -5 -70 -21 -144 -34 -198 -35 -278 -55 -297 -74 -31
-33 -271 -132 -349 -144 -40 -6 -73 -15 -73 -20 0 -4 20 -5 45 -1 25 3 45 4
45 2 0 -3 -22 -19 -50 -37 -48 -31 -87 -47 -180 -72 l-45 -13 35 -6 c35 -6 34
-6 -35 -29 -104 -35 -389 -147 -462 -182 -35 -16 -63 -34 -63 -40 0 -13 5 -12
71 22 34 17 64 28 67 25 3 -4 15 0 28 8 29 20 136 56 146 49 5 -2 7 1 6 9 -2
7 6 13 17 13 11 0 25 3 30 6 18 11 67 20 62 12 -3 -5 -33 -22 -68 -38 -55 -27
-145 -95 -125 -95 4 0 28 14 53 30 24 17 63 40 86 51 l42 21 -53 -50 c-28 -28
-52 -55 -52 -61 0 -6 -6 -11 -13 -11 -7 0 -26 -15 -43 -33 -17 -18 -59 -46
-92 -62 -34 -17 -64 -38 -67 -47 -4 -10 -11 -18 -16 -18 -5 0 -9 -7 -9 -15 0
-8 -25 -26 -56 -41 -67 -31 -157 -135 -317 -365 -56 -81 -104 -145 -106 -144
-4 5 49 147 60 160 5 5 9 17 9 27 0 10 5 18 10 18 6 0 10 7 10 16 0 55 -94
-77 -140 -198 -63 -161 -131 -481 -162 -757 -15 -138 -29 -125 -35 33 -5 129
-9 156 -25 156 -19 0 -2 -218 31 -410 30 -172 48 -249 51 -220 2 18 29 -48 28
-70 0 -8 -6 -1 -14 15 l-15 30 6 -30 c15 -76 27 -108 35 -95 10 17 14 9 80
-160 29 -74 69 -164 90 -200 21 -36 54 -96 73 -135 19 -38 42 -78 49 -88 13
-17 14 -16 12 10 -1 15 -3 31 -3 36 -1 4 -7 7 -14 7 -7 0 -33 40 -57 90 -42
85 -43 91 -26 103 15 11 16 17 7 35 -14 27 -14 39 1 24 17 -17 31 -15 24 4 -5
14 -4 15 8 5 13 -11 14 -8 6 19 -5 18 -19 48 -30 67 -11 20 -19 38 -16 40 3 3
-6 28 -20 55 -14 27 -23 55 -21 61 2 7 12 -6 22 -28 23 -53 29 -33 10 35 -33
116 -45 194 -33 201 7 5 13 7 14 6 1 -1 14 -63 28 -137 40 -201 103 -418 139
-471 10 -15 33 -70 51 -122 41 -117 84 -196 97 -176 9 14 30 -6 109 -101 15
-18 35 -30 49 -30 21 0 17 8 -42 69 -44 45 -67 77 -67 93 0 23 0 23 25 -6 14
-16 25 -25 25 -20 0 5 -19 29 -41 54 -22 25 -38 40 -35 33 3 -6 0 -14 -6 -16
-10 -4 -10 -8 2 -16 8 -5 18 -7 22 -5 4 3 5 -3 1 -12 -12 -31 -76 56 -128 172
-45 101 -47 108 -30 120 10 7 23 15 29 18 10 4 -3 19 -25 28 -4 2 -9 14 -13
28 -6 25 -6 25 5 3 14 -27 35 -31 24 -6 -4 10 -17 43 -28 73 -12 30 -25 56
-29 58 -4 2 -8 14 -8 27 0 13 -16 64 -35 114 -38 98 -45 144 -20 135 11 -5 15
0 14 17 0 13 -3 18 -6 11 -9 -24 -22 -1 -17 31 3 17 -2 76 -10 129 -19 117
-19 109 -3 106 13 -3 14 36 1 86 -6 25 -4 28 10 23 14 -6 16 2 16 58 0 79 15
85 24 11 14 -110 24 -116 25 -14 1 113 18 249 33 263 7 7 8 -11 4 -60 -4 -38
-9 -140 -13 -226 -6 -161 1 -245 18 -218 7 11 9 9 9 -9 0 -13 -4 -20 -10 -17
-6 4 -10 -6 -10 -22 0 -28 41 -207 61 -270 13 -40 34 -45 24 -5 -29 115 -45
217 -35 220 7 3 8 8 1 16 -6 7 -15 42 -20 79 -5 36 -13 72 -17 78 -4 7 -2 10
7 7 8 -2 18 -27 23 -54 11 -65 17 -83 23 -67 3 7 0 36 -6 63 -14 64 -14 178
-1 294 13 110 29 145 30 66 1 -47 3 -52 11 -30 9 22 40 177 38 190 0 3 -9 -13
-19 -35 l-19 -40 5 55 c3 30 9 64 13 75 33 81 57 132 68 141 7 6 13 17 13 25
0 16 60 133 104 204 24 39 27 50 18 70 -13 27 4 48 19 24 7 -11 9 -11 9 3 0
35 44 99 119 176 45 45 66 54 56 22 -5 -15 -3 -18 8 -14 25 9 29 -14 5 -35
-14 -14 -24 -17 -29 -10 -4 7 -9 4 -13 -7 -9 -23 0 -30 19 -14 9 7 18 11 20 8
7 -6 -94 -201 -107 -209 -6 -4 -11 -17 -12 -30 -1 -13 -7 -23 -14 -21 -7 1
-12 -6 -12 -15 0 -10 -36 -90 -79 -178 -44 -88 -86 -180 -94 -205 -32 -98 -82
-482 -94 -717 -5 -113 -4 -136 12 -168 25 -54 35 -93 24 -97 -13 -4 22 -72 39
-76 6 -1 12 4 12 10 0 9 4 8 10 -2 13 -20 12 -31 -1 -28 -6 2 -14 -3 -16 -9
-3 -7 0 -13 6 -13 6 0 11 -10 11 -22 0 -36 11 -68 22 -62 5 3 6 -5 2 -20 -4
-17 -2 -26 5 -26 7 0 19 -16 27 -35 18 -44 18 -58 -1 -25 -8 14 -14 19 -15 13
0 -22 32 -93 40 -88 8 5 74 -115 67 -122 -3 -2 -17 18 -33 46 -15 28 -29 49
-31 47 -7 -6 49 -136 58 -136 4 0 6 -6 3 -13 -3 -8 6 -18 21 -25 35 -16 35
-16 35 19 0 17 4 28 10 24 6 -3 7 1 3 10 -4 11 -8 13 -13 5 -5 -8 -10 -7 -17
2 -38 47 -153 331 -152 375 0 24 3 22 20 -20 10 -27 43 -90 73 -140 29 -51 57
-103 61 -117 4 -14 33 -52 64 -85 32 -33 75 -81 96 -108 33 -42 122 -117 139
-117 16 0 1 22 -65 95 -146 163 -225 297 -289 495 -64 193 -84 338 -85 597 0
131 -4 218 -9 213 -5 -5 -11 -35 -13 -66 -2 -32 -11 -69 -18 -83 -13 -24 -14
-15 -15 86 0 63 4 114 10 118 6 4 7 -1 3 -12 -4 -13 -3 -15 6 -7 17 16 27 84
11 84 -7 0 -10 -6 -7 -14 3 -8 -1 -17 -9 -20 -15 -6 -14 11 8 84 15 48 19 54
29 39 6 -10 9 -6 9 14 0 37 -17 34 -34 -5 -12 -27 -15 -29 -15 -12 -1 12 6 38
14 58 8 20 16 47 17 61 1 14 6 25 10 25 4 0 5 7 2 15 -4 8 -1 15 5 15 6 0 8 7
5 15 -4 8 -1 15 5 15 6 0 11 9 11 20 0 11 5 20 11 20 6 0 9 7 5 15 -3 9 0 15
9 15 21 0 19 -13 -12 -73 -14 -29 -27 -62 -29 -74 -1 -11 -5 -32 -9 -44 -7
-20 -6 -22 7 -11 8 7 32 53 53 103 20 50 53 113 72 141 23 36 31 54 23 62 -17
17 -11 30 7 15 13 -11 17 -11 20 -1 3 6 11 12 19 12 8 0 14 7 14 15 0 8 5 15
11 15 13 0 8 -15 -47 -157 -24 -61 -44 -124 -44 -139 0 -15 -7 -35 -15 -44
-10 -11 -12 -24 -6 -45 l8 -30 12 45 c48 181 53 191 131 287 6 7 19 37 31 68
11 30 25 55 29 55 5 0 18 17 29 38 14 28 21 33 26 21 3 -8 1 -28 -5 -43 -5
-15 -10 -42 -10 -59 l1 -32 20 38 c11 20 24 37 29 37 6 0 10 11 10 24 0 35 10
56 26 56 8 0 14 9 14 19 0 11 11 33 25 49 14 17 25 34 25 40 0 13 29 36 37 29
3 -4 -2 -25 -12 -48 -16 -35 -17 -42 -4 -50 21 -13 27 -11 35 13 3 12 17 33
30 47 31 34 33 8 3 -49 -14 -26 -19 -49 -15 -65 4 -14 2 -25 -4 -25 -5 0 -10
-4 -10 -10 0 -24 17 -6 45 48 39 75 161 237 219 290 25 23 65 55 89 70 23 15
76 60 117 100 63 61 88 77 155 103 44 17 86 34 94 37 11 4 11 1 1 -19 -12 -21
-11 -22 1 -12 8 6 32 12 54 12 22 1 69 5 105 9 l65 8 -67 8 c-54 7 -65 11 -61
24 5 11 2 14 -10 9 -8 -3 -33 -9 -54 -13 -34 -6 -37 -6 -25 9 20 23 105 54
110 39 4 -14 61 -4 79 14 7 7 42 15 77 19 53 6 63 10 59 23 -6 13 5 14 88 9
l94 -5 -84 42 c-83 42 -83 42 -60 59 24 16 24 16 -7 7 -18 -4 -46 -5 -65 -1
l-32 6 69 32 c83 38 137 53 184 52 l35 -1 -40 -19 c-22 -10 -47 -19 -56 -19
-8 0 -25 -10 -36 -22 -35 -40 -38 -53 -6 -30 17 12 46 22 65 22 18 1 51 9 73
20 22 11 52 19 67 20 19 0 26 4 22 14 -3 8 0 17 7 22 14 8 11 8 252 19 139 6
180 11 190 23 10 13 9 14 -13 8 -44 -12 -75 -14 -81 -4 -4 6 -20 6 -45 -1 -21
-6 -87 -12 -147 -14 -110 -3 -116 5 -14 17 39 5 64 14 77 29 24 25 13 36 -40
38 -24 1 -28 3 -12 6 21 4 32 23 12 23 -5 0 -52 -13 -103 -30 -52 -16 -101
-30 -111 -30 -24 0 -20 27 5 33 13 3 19 11 17 19 -4 10 10 14 56 15 33 1 76 3
94 3 17 1 32 6 32 11 0 5 30 10 68 10 37 1 55 4 40 6 -16 2 -28 9 -28 15 0 6
-16 8 -42 4 -90 -14 -143 -17 -130 -8 37 25 -126 29 -308 7 -69 -8 -136 -15
-149 -15 -50 0 -9 12 105 31 148 25 398 37 408 20 8 -12 65 -15 83 -3 7 5 -5
8 -29 9 -23 1 -46 7 -52 14 -8 8 7 9 63 4 67 -7 73 -6 68 10 -4 9 -7 20 -7 25
0 11 -53 20 -65 10 -5 -4 -48 -10 -95 -14 -47 -3 -125 -10 -175 -15 -84 -8
-92 -8 -112 12 -13 11 -23 16 -23 10 0 -11 -95 -33 -139 -33 -22 1 -23 2 -10
10 24 14 154 40 200 40 21 0 39 5 39 10 0 6 5 10 10 10 6 0 20 9 32 20 20 19
21 20 2 26 -10 4 -22 9 -27 11 -4 3 -6 -1 -5 -9 4 -17 -52 -24 -63 -7 -6 10
-11 10 -21 1 -11 -9 -17 -9 -26 0 -9 9 -12 9 -12 0 0 -7 -12 -12 -27 -11 -25
0 -26 1 -8 9 19 8 19 8 -3 17 -13 5 -51 6 -85 1 -34 -4 -75 -5 -91 -2 -26 6
-27 8 -11 16 10 6 20 7 24 1 4 -6 46 -6 109 0 74 7 126 7 180 -2 43 -6 88 -12
102 -12 126 -1 154 1 160 11 7 11 40 3 40 -10 0 -13 -41 -20 -117 -20 -62 0
-96 -11 -81 -26 7 -6 171 17 195 29 17 7 28 6 47 -7 38 -24 152 -49 174 -37
32 17 47 40 34 53 -9 9 -15 9 -24 0 -19 -19 -41 -15 -33 6 5 14 4 15 -6 5 -16
-16 -40 -16 -76 -1 -32 13 -27 12 -148 27 -49 6 -140 11 -201 11 -81 0 -115 4
-123 14 -14 17 -166 29 -192 15 -25 -13 -44 -2 -29 16 13 16 -2 29 -17 14z
m-223 -76 c-19 -9 -60 -18 -90 -19 -66 -5 -58 1 30 20 85 18 103 18 60 -1z
m305 7 c-3 -5 -13 -10 -21 -10 -8 0 -12 5 -9 10 3 6 13 10 21 10 8 0 12 -4 9
-10z m98 3 c-7 -2 -21 -2 -30 0 -10 3 -4 5 12 5 17 0 24 -2 18 -5z m-225 -28
c-3 -3 -55 -19 -114 -35 -60 -15 -181 -53 -269 -84 -88 -30 -151 -49 -141 -41
11 8 14 15 8 15 -7 0 -20 -8 -30 -17 -18 -19 -138 -73 -159 -73 -53 0 62 73
203 129 121 49 230 77 360 95 114 16 150 18 142 11z m103 -63 c-7 -2 -18 1
-23 6 -8 8 -4 9 13 5 13 -4 18 -8 10 -11z m162 -89 c-7 -2 -21 -2 -30 0 -10 3
-4 5 12 5 17 0 24 -2 18 -5z m-388 -73 c19 -8 19 -9 -2 -9 -12 -1 -25 4 -28 9
-7 12 2 12 30 0z m-110 -50 c-3 -5 -11 -10 -16 -10 -6 0 -7 5 -4 10 3 6 11 10
16 10 6 0 7 -4 4 -10z m625 1 c-25 -14 -76 -24 -65 -13 10 10 38 19 65 21 13
0 13 -1 0 -8z m-700 -42 c0 -7 -52 -19 -79 -19 -14 1 -14 2 1 14 18 13 78 17
78 5z m630 -39 c-34 -11 -60 -11 -35 0 11 5 29 8 40 8 16 0 15 -2 -5 -8z
m-270 -175 c0 -2 -10 -9 -22 -15 -22 -11 -22 -10 -4 4 21 17 26 19 26 11z
m-35 -55 c3 -5 1 -10 -4 -10 -6 0 -11 5 -11 10 0 6 2 10 4 10 3 0 8 -4 11 -10z
m155 0 c-20 -13 -33 -13 -25 0 3 6 14 10 23 10 15 0 15 -2 2 -10z m-1210 -189
c0 -5 -19 -24 -42 -42 l-43 -33 40 42 c42 45 45 47 45 33z m-158 -53 c-7 -7
-12 -8 -12 -2 0 14 12 26 19 19 2 -3 -1 -11 -7 -17z m-141 -181 c-44 -42 -44
-42 -21 -7 26 39 51 62 59 55 3 -3 -15 -25 -38 -48z m-212 1 c-5 -18 -9 -34
-9 -35 0 -2 -5 -3 -11 -3 -11 0 -3 37 13 58 16 19 17 15 7 -20z m411 -7 c0
-18 -32 -43 -42 -33 -14 14 0 35 18 28 8 -3 14 -1 14 4 0 6 2 10 5 10 3 0 5
-4 5 -9z m-462 -74 c-1 -1 -13 -8 -25 -15 -28 -15 -32 2 -6 30 15 17 18 17 26
3 5 -9 7 -17 5 -18z m48 -3 c-8 -16 -24 -50 -35 -76 -11 -26 -26 -50 -33 -55
-7 -4 -28 -39 -46 -78 l-33 -70 28 30 c16 17 28 33 26 37 -2 3 4 13 12 21 8 9
15 22 15 31 0 8 5 18 10 21 22 13 8 -40 -26 -101 -20 -36 -31 -64 -24 -64 7 0
-4 -17 -24 -37 -27 -28 -33 -39 -21 -41 22 -5 19 -17 -9 -35 -13 -9 -26 -28
-29 -44 -3 -15 -24 -80 -47 -143 -23 -63 -52 -155 -66 -205 l-24 -90 3 128 c2
104 5 131 18 140 9 7 14 18 11 25 -2 7 4 20 14 28 11 9 13 13 7 9 -16 -8 -17
11 -2 21 15 9 123 233 116 240 -3 3 -24 -32 -46 -78 -71 -146 -45 -56 34 117
38 83 36 88 -9 20 -37 -56 -32 -37 13 53 48 95 96 162 116 162 8 0 15 8 15 19
0 16 39 54 48 46 1 -1 -4 -15 -12 -31z m-121 -31 c-9 -21 -28 -54 -43 -73 -15
-19 -38 -60 -52 -90 -21 -49 -47 -92 -38 -65 2 6 -1 11 -6 13 -5 2 -24 -46
-42 -105 -18 -59 -49 -157 -68 -218 l-35 -110 -1 55 c0 36 -4 50 -9 40 -10
-18 -55 -241 -73 -366 l-13 -89 -6 65 c-4 44 0 96 13 163 10 54 18 108 17 120
-4 45 1 98 9 93 5 -3 23 31 41 75 18 43 36 77 40 74 5 -2 11 13 14 34 5 39 77
196 122 266 24 38 25 39 19 10 -4 -16 -4 -28 -1 -25 12 11 57 81 57 90 0 4 4
10 8 12 4 2 18 18 31 36 30 42 35 41 16 -5z m149 -87 c-9 -15 -19 -25 -21 -22
-3 2 3 16 13 30 9 15 19 25 21 22 3 -2 -3 -16 -13 -30z m516 -60 c0 -3 -4 -8
-10 -11 -5 -3 -10 -1 -10 4 0 6 5 11 10 11 6 0 10 -2 10 -4z m-422 -15 c18
-11 -8 -64 -43 -87 -14 -9 -25 -25 -25 -35 0 -11 -23 -65 -50 -120 -56 -111
-85 -179 -106 -254 l-14 -50 6 60 c3 33 7 69 9 80 2 11 4 33 4 49 1 18 13 40
35 62 19 19 38 49 41 67 10 44 63 143 97 180 16 16 27 36 24 44 -6 15 3 17 22
4z m162 -160 c-13 -25 -30 -36 -30 -20 0 6 8 18 18 25 23 18 24 17 12 -5z
m-686 -63 c-10 -18 -19 -27 -22 -20 -4 14 26 67 35 59 2 -3 -3 -20 -13 -39z
m-45 -113 c-19 -57 -19 -58 -14 -16 3 24 10 52 16 63 19 36 18 13 -2 -47z m60
-920 c0 -5 -4 -3 -9 5 -5 8 -9 22 -9 30 0 16 17 -16 18 -35z m461 -73 c0 -21
-2 -24 -10 -12 -13 20 -13 53 0 45 6 -3 10 -18 10 -33z m25 -192 c3 -5 2 -10
-4 -10 -5 0 -13 5 -16 10 -3 6 -2 10 4 10 5 0 13 -4 16 -10z m15 -42 c0 -16
-3 -19 -11 -11 -6 6 -8 16 -5 22 11 17 16 13 16 -11z m-460 -84 c0 -2 -7 -4
-15 -4 -8 0 -15 4 -15 10 0 5 7 7 15 4 8 -4 15 -8 15 -10z m187 -50 c-3 -3
-12 -4 -19 -1 -8 3 -5 6 6 6 11 1 17 -2 13 -5z"/>
<path d="M532 3130 c0 -14 2 -19 5 -12 2 6 2 18 0 25 -3 6 -5 1 -5 -13z"/>
<path d="M375 2820 c-4 -12 -5 -24 -2 -27 3 -2 8 5 12 17 4 12 5 24 2 27 -3 2
-8 -5 -12 -17z"/>
<path d="M1687 4446 c-37 -13 -71 -27 -75 -31 -4 -5 2 -5 13 0 11 4 41 13 66
20 45 12 94 35 74 34 -5 0 -41 -11 -78 -23z"/>
<path d="M1938 4463 c7 -3 16 -2 19 1 4 3 -2 6 -13 5 -11 0 -14 -3 -6 -6z"/>
<path d="M1565 4355 c-25 -12 -26 -14 -5 -9 28 7 60 23 45 23 -5 0 -23 -6 -40
-14z"/>
<path d="M1445 4294 l-40 -13 40 5 c22 3 44 10 50 15 12 12 -1 11 -50 -7z"/>
<path d="M1610 4299 c0 -5 5 -7 10 -4 6 3 10 8 10 11 0 2 -4 4 -10 4 -5 0 -10
-5 -10 -11z"/>
<path d="M1390 4210 c-8 -5 -10 -10 -5 -10 6 0 17 5 25 10 8 5 11 10 5 10 -5
0 -17 -5 -25 -10z"/>
<path d="M3165 4160 c-3 -5 -2 -10 4 -10 5 0 13 5 16 10 3 6 2 10 -4 10 -5 0
-13 -4 -16 -10z"/>
<path d="M1240 4090 c-14 -5 -18 -9 -10 -10 23 -4 44 1 55 11 11 11 -9 10 -45
-1z"/>
<path d="M3128 4093 c12 -2 32 -2 45 0 12 2 2 4 -23 4 -25 0 -35 -2 -22 -4z"/>
<path d="M2930 4000 c-12 -8 -11 -10 8 -10 12 0 22 5 22 10 0 13 -11 13 -30 0z"/>
<path d="M973 3847 c-13 -5 -23 -16 -23 -24 0 -15 16 -17 25 -3 3 6 15 10 26
10 10 0 19 4 19 9 0 15 -24 19 -47 8z"/>
<path d="M750 3839 c0 -5 5 -7 10 -4 6 3 10 8 10 11 0 2 -4 4 -10 4 -5 0 -10
-5 -10 -11z"/>
<path d="M907 3833 c-4 -3 -7 -11 -7 -17 0 -6 5 -5 12 2 6 6 9 14 7 17 -3 3
-9 2 -12 -2z"/>
<path d="M700 3820 c-8 -5 -12 -12 -9 -15 4 -3 12 1 19 10 14 17 11 19 -10 5z"/>
<path d="M3726 3811 c-4 -7 -5 -15 -2 -18 9 -9 19 4 14 18 -4 11 -6 11 -12 0z"/>
<path d="M915 3760 c-3 -5 -1 -10 4 -10 6 0 11 5 11 10 0 6 -2 10 -4 10 -3 0
-8 -4 -11 -10z"/>
<path d="M2485 3666 c87 -18 102 -19 90 -7 -6 5 -44 12 -85 15 l-75 6 70 -14z"/>
<path d="M715 3660 c-3 -5 -1 -10 4 -10 6 0 11 5 11 10 0 6 -2 10 -4 10 -3 0
-8 -4 -11 -10z"/>
<path d="M665 3591 c-6 -11 9 -23 19 -14 9 9 7 23 -3 23 -6 0 -12 -4 -16 -9z"/>
<path d="M3871 3590 c-1 -18 16 -46 23 -40 2 3 -2 16 -9 30 -8 15 -14 19 -14
10z"/>
<path d="M640 3550 c0 -5 5 -10 10 -10 6 0 10 5 10 10 0 6 -4 10 -10 10 -5 0
-10 -4 -10 -10z"/>
<path d="M616 3514 c-9 -24 -7 -28 9 -14 17 14 20 30 6 30 -5 0 -12 -7 -15
-16z"/>
<path d="M3905 3520 c-3 -5 1 -10 10 -10 9 0 13 5 10 10 -3 6 -8 10 -10 10 -2
0 -7 -4 -10 -10z"/>
<path d="M3920 3454 c0 -16 5 -24 13 -22 18 7 20 35 2 41 -11 5 -15 0 -15 -19z"/>
<path d="M396 3408 c-13 -18 -22 -36 -19 -41 3 -5 10 0 17 11 6 11 17 29 24
41 19 32 7 25 -22 -11z"/>
<path d="M4215 3393 c23 -54 105 -306 116 -357 7 -32 19 -60 26 -63 15 -6 18
-69 3 -78 -5 -3 -10 -14 -10 -23 0 -14 2 -15 10 -2 8 12 10 12 16 -4 4 -10 2
-21 -5 -25 -9 -6 -8 -23 4 -72 8 -35 15 -98 15 -139 0 -46 5 -81 12 -88 9 -9
9 -12 -1 -12 -10 0 -12 -11 -6 -46 4 -26 3 -50 -2 -53 -5 -3 -16 -62 -26 -131
-20 -140 -53 -293 -72 -329 -10 -20 -13 -21 -18 -7 -4 10 -3 15 3 11 6 -3 10
-2 10 4 0 5 -6 11 -12 14 -10 3 -10 9 0 26 17 29 30 217 14 207 -7 -4 -12 -27
-12 -52 0 -25 -7 -61 -15 -80 -8 -20 -13 -40 -10 -44 5 -8 -16 -68 -40 -112
-20 -35 -19 -58 3 -58 17 0 18 -6 10 -65 -14 -106 -116 -325 -216 -464 -79
-111 -143 -182 -221 -245 -78 -64 -101 -73 -50 -20 l34 36 -35 -18 c-19 -10
-40 -18 -45 -18 -6 -1 -48 -35 -93 -76 -74 -67 -160 -129 -202 -146 -8 -3 -22
-10 -30 -15 -8 -5 -28 -15 -45 -23 -16 -8 -41 -24 -55 -35 l-25 -21 35 6 c296
51 544 252 815 662 38 56 70 100 73 97 11 -11 -100 -215 -167 -308 -71 -97
-81 -125 -25 -64 46 48 86 103 144 197 92 147 230 393 230 409 0 9 11 37 25
62 43 83 87 347 89 539 1 110 -33 455 -55 570 -6 30 -12 63 -12 72 -1 9 -4 15
-7 13 -4 -2 -30 58 -59 133 -55 141 -107 252 -117 252 -3 0 -3 -8 1 -17z m193
-1145 c-7 -117 -39 -298 -48 -272 -5 12 -10 -2 -14 -41 -4 -33 -18 -91 -31
-130 l-23 -70 2 78 c1 43 7 82 13 85 12 8 83 353 83 405 0 21 5 37 11 37 8 0
10 -27 7 -92z m-151 -300 c-3 -8 -6 -5 -6 6 -1 11 2 17 5 13 3 -3 4 -12 1 -19z
m-7 -38 c0 -5 -5 -10 -11 -10 -5 0 -7 5 -4 10 3 6 8 10 11 10 2 0 4 -4 4 -10z
m15 -189 c-17 -66 -65 -181 -75 -181 -20 0 -16 52 6 82 13 17 24 35 24 39 0
13 51 121 55 117 2 -2 -2 -28 -10 -57z"/>
<path d="M3960 3339 c7 -11 14 -19 16 -16 7 7 -7 37 -17 37 -6 0 -5 -9 1 -21z"/>
<path d="M4000 3350 c0 -5 5 -10 11 -10 5 0 7 5 4 10 -3 6 -8 10 -11 10 -2 0
-4 -4 -4 -10z"/>
<path d="M4000 3256 c0 -9 5 -16 10 -16 6 0 10 4 10 9 0 6 -4 13 -10 16 -5 3
-10 -1 -10 -9z"/>
<path d="M987 3193 c-4 -3 -7 -11 -7 -17 0 -6 5 -5 12 2 6 6 9 14 7 17 -3 3
-9 2 -12 -2z"/>
<path d="M195 3048 c-45 -93 -99 -297 -82 -314 14 -14 35 18 42 64 4 26 27
112 51 192 24 79 41 146 39 149 -3 2 -25 -39 -50 -91z"/>
<path d="M4160 3123 c0 -5 4 -15 10 -23 11 -18 25 -7 17 15 -6 15 -27 21 -27
8z"/>
<path d="M4371 3100 c0 -8 4 -22 9 -30 12 -18 12 -2 0 25 -6 13 -9 15 -9 5z"/>
<path d="M4210 3004 c0 -10 5 -26 10 -34 8 -11 9 -7 4 15 -8 37 -14 45 -14 19z"/>
<path d="M3926 2845 c4 -49 8 -92 10 -94 9 -10 3 156 -6 169 -7 10 -8 -15 -4
-75z"/>
<path d="M820 2878 c-12 -22 -12 -22 6 -6 10 10 15 20 12 24 -4 3 -12 -5 -18
-18z"/>
<path d="M4690 2871 c0 -6 4 -13 10 -16 6 -3 7 1 4 9 -7 18 -14 21 -14 7z"/>
<path d="M790 2811 c-12 -24 -13 -34 -1 -27 9 6 22 46 15 46 -2 0 -8 -9 -14
-19z"/>
<path d="M1121 2814 c0 -11 3 -14 6 -6 3 7 2 16 -1 19 -3 4 -6 -2 -5 -13z"/>
<path d="M4232 2800 c0 -14 2 -19 5 -12 2 6 2 18 0 25 -3 6 -5 1 -5 -13z"/>
<path d="M4810 2796 c0 -9 5 -16 10 -16 6 0 10 4 10 9 0 6 -4 13 -10 16 -5 3
-10 -1 -10 -9z"/>
<path d="M960 2756 c-15 -41 -10 -56 6 -17 8 18 13 36 10 39 -3 2 -10 -7 -16
-22z"/>
<path d="M1240 2759 c0 -5 5 -7 10 -4 6 3 10 8 10 11 0 2 -4 4 -10 4 -5 0 -10
-5 -10 -11z"/>
<path d="M4824 2724 c28 -74 30 -121 11 -299 -2 -22 -2 -31 1 -21 4 13 8 15
13 7 12 -19 21 179 11 247 -4 34 -11 66 -15 72 -10 16 -28 11 -21 -6z"/>
<path d="M112 2704 c-17 -32 -26 -100 -13 -108 18 -11 44 64 34 99 -9 29 -9
29 -21 9z"/>
<path d="M4537 2679 c3 -24 9 -66 14 -94 7 -42 8 -37 5 34 -3 46 -9 88 -14 93
-7 7 -9 -4 -5 -33z"/>
<path d="M4742 2670 c0 -14 2 -19 5 -12 2 6 2 18 0 25 -3 6 -5 1 -5 -13z"/>
<path d="M4092 2650 c0 -14 2 -19 5 -12 2 6 2 18 0 25 -3 6 -5 1 -5 -13z"/>
<path d="M3991 2630 c0 -8 4 -24 9 -35 5 -13 9 -14 9 -5 0 8 -4 24 -9 35 -5
13 -9 14 -9 5z"/>
<path d="M1116 2577 c-5 -15 -6 -31 -2 -34 11 -11 18 5 14 34 l-4 28 -8 -28z"/>
<path d="M4761 2584 c0 -11 3 -14 6 -6 3 7 2 16 -1 19 -3 4 -6 -2 -5 -13z"/>
<path d="M927 2573 c-4 -3 -7 -11 -7 -17 0 -6 5 -5 12 2 6 6 9 14 7 17 -3 3
-9 2 -12 -2z"/>
<path d="M4320 2531 c0 -5 5 -13 10 -16 6 -3 10 -2 10 4 0 5 -4 13 -10 16 -5
3 -10 2 -10 -4z"/>
<path d="M897 2510 c-6 -23 10 -37 25 -22 12 12 4 42 -11 42 -5 0 -11 -9 -14
-20z"/>
<path d="M940 2510 c0 -5 5 -10 11 -10 5 0 7 5 4 10 -3 6 -8 10 -11 10 -2 0
-4 -4 -4 -10z"/>
<path d="M962 2475 c-19 -72 -26 -151 -13 -159 6 -4 11 0 12 11 1 46 17 160
24 176 4 9 3 17 -2 17 -5 0 -14 -20 -21 -45z"/>
<path d="M3926 2359 c-15 -104 -38 -198 -71 -284 l-8 -20 20 20 c21 21 66 217
80 345 11 105 -3 64 -21 -61z"/>
<path d="M747 2433 c-4 -3 -7 -11 -7 -17 0 -6 5 -5 12 2 6 6 9 14 7 17 -3 3
-9 2 -12 -2z"/>
<path d="M3991 2433 c-1 -6 -4 -20 -7 -30 -5 -17 -5 -17 6 0 6 10 9 23 6 30
-3 9 -5 9 -5 0z"/>
<path d="M731 2344 c0 -11 3 -14 6 -6 3 7 2 16 -1 19 -3 4 -6 -2 -5 -13z"/>
<path d="M4550 2340 c0 -19 3 -21 12 -12 9 9 9 15 0 24 -9 9 -12 7 -12 -12z"/>
<path d="M4310 2329 c0 -8 -7 -26 -14 -41 -13 -24 -13 -28 -1 -28 15 0 33 66
21 77 -3 4 -6 0 -6 -8z"/>
<path d="M662 2250 c0 -19 2 -27 5 -17 2 9 2 25 0 35 -3 9 -5 1 -5 -18z"/>
<path d="M4202 2221 c-6 -17 -7 -31 -3 -31 8 0 22 52 16 58 -1 2 -7 -11 -13
-27z"/>
<path d="M1143 2180 c0 -25 2 -35 4 -22 2 12 2 32 0 45 -2 12 -4 2 -4 -23z"/>
<path d="M680 2185 c0 -18 5 -25 20 -25 20 0 20 1 4 25 -9 14 -18 25 -20 25
-2 0 -4 -11 -4 -25z"/>
<path d="M4822 2135 c0 -16 2 -22 5 -12 2 9 2 23 0 30 -3 6 -5 -1 -5 -18z"/>
<path d="M688 2062 c-4 -44 6 -48 16 -6 4 15 3 31 -2 36 -6 6 -11 -5 -14 -30z"/>
<path d="M3895 2040 c-4 -6 -10 -8 -15 -5 -5 3 -11 1 -15 -5 -4 -6 -10 -8 -15
-5 -4 3 -10 -2 -14 -10 -3 -8 -1 -15 4 -15 5 0 11 -8 13 -17 4 -14 5 -12 6 5
0 12 6 22 11 22 6 0 8 -11 4 -27 -6 -27 -5 -27 15 5 12 18 28 35 37 39 13 5
13 7 2 14 -17 11 -26 11 -33 -1z"/>
<path d="M695 2010 c-3 -5 -1 -10 4 -10 6 0 11 5 11 10 0 6 -2 10 -4 10 -3 0
-8 -4 -11 -10z"/>
<path d="M4125 1990 c-3 -5 -1 -10 4 -10 6 0 11 5 11 10 0 6 -2 10 -4 10 -3 0
-8 -4 -11 -10z"/>
<path d="M690 1965 c0 -8 5 -15 10 -15 6 0 10 7 10 15 0 8 -4 15 -10 15 -5 0
-10 -7 -10 -15z"/>
<path d="M3960 1827 c-75 -187 -169 -375 -207 -415 -18 -19 -33 -38 -33 -43 0
-4 -18 -29 -40 -54 -22 -25 -40 -50 -40 -56 0 -5 -6 -9 -14 -9 -13 0 -31 -29
-22 -37 7 -8 115 123 174 213 67 102 127 216 171 327 35 88 72 199 68 203 -2
2 -27 -56 -57 -129z"/>
<path d="M3802 1853 c-23 -55 -29 -88 -12 -78 6 3 10 20 10 36 0 19 6 32 18
37 13 5 17 14 12 32 -5 22 -8 19 -28 -27z"/>
<path d="M4880 1875 c0 -5 5 -17 10 -25 5 -8 10 -10 10 -5 0 6 -5 17 -10 25
-5 8 -10 11 -10 5z"/>
<path d="M4652 1790 c0 -19 2 -27 5 -17 2 9 2 25 0 35 -3 9 -5 1 -5 -18z"/>
<path d="M4590 1764 c0 -8 5 -12 10 -9 6 3 10 10 10 16 0 5 -4 9 -10 9 -5 0
-10 -7 -10 -16z"/>
<path d="M3746 1721 c-9 -16 -16 -35 -16 -41 0 -6 -20 -40 -45 -74 -50 -70
-58 -91 -21 -57 28 26 113 188 104 197 -4 3 -14 -8 -22 -25z"/>
<path d="M1041 1728 c-1 -21 18 -72 24 -66 3 3 -1 22 -9 44 -8 21 -15 31 -15
22z"/>
<path d="M4635 1730 c-3 -5 -1 -10 4 -10 6 0 11 5 11 10 0 6 -2 10 -4 10 -3 0
-8 -4 -11 -10z"/>
<path d="M1021 1700 c-3 -62 55 -190 73 -161 4 6 3 11 -2 11 -13 0 -34 59 -26
72 4 6 2 13 -4 17 -5 3 -17 22 -25 41 -9 19 -16 28 -16 20z"/>
<path d="M1110 1700 c0 -8 5 -22 10 -30 9 -13 10 -13 10 0 0 8 -5 22 -10 30
-9 13 -10 13 -10 0z"/>
<path d="M4617 1673 c-4 -3 -7 -11 -7 -17 0 -6 5 -5 12 2 6 6 9 14 7 17 -3 3
-9 2 -12 -2z"/>
<path d="M715 1648 c3 -16 17 -52 30 -80 15 -32 23 -42 20 -26 -3 16 -17 52
-30 80 -15 32 -23 42 -20 26z"/>
<path d="M4621 1524 c-28 -65 -50 -122 -48 -127 1 -5 27 45 55 113 29 67 51
124 49 127 -3 2 -28 -49 -56 -113z"/>
<path d="M4589 1594 c-45 -118 -59 -158 -51 -149 16 18 75 165 69 172 -4 3
-11 -7 -18 -23z"/>
<path d="M3610 1565 c-7 -9 -11 -18 -8 -20 3 -3 11 1 18 10 7 9 11 18 8 20 -3
3 -11 -1 -18 -10z"/>
<path d="M1670 1549 c0 -5 5 -7 10 -4 6 3 10 8 10 11 0 2 -4 4 -10 4 -5 0 -10
-5 -10 -11z"/>
<path d="M3940 1520 c-6 -11 -8 -20 -6 -20 3 0 10 9 16 20 6 11 8 20 6 20 -3
0 -10 -9 -16 -20z"/>
<path d="M4315 1520 c-3 -5 -1 -10 4 -10 6 0 11 5 11 10 0 6 -2 10 -4 10 -3 0
-8 -4 -11 -10z"/>
<path d="M4510 1508 c-12 -22 -12 -22 6 -6 10 10 15 20 12 24 -4 3 -12 -5 -18
-18z"/>
<path d="M3900 1451 c-6 -12 -7 -21 -1 -21 10 0 24 30 17 37 -2 3 -9 -5 -16
-16z"/>
<path d="M3823 1428 c-15 -20 -25 -38 -20 -38 3 0 12 11 21 25 17 26 16 35 -1
13z"/>
<path d="M4497 1373 c-4 -3 -7 -11 -7 -17 0 -6 5 -5 12 2 6 6 9 14 7 17 -3 3
-9 2 -12 -2z"/>
<path d="M667 1298 c35 -66 62 -102 71 -93 2 2 -7 19 -20 37 -14 18 -37 54
-52 81 -42 73 -41 56 1 -25z"/>
<path d="M4152 1340 c-18 -29 -15 -38 4 -12 9 13 14 25 12 27 -2 2 -9 -5 -16
-15z"/>
<path d="M4161 1299 c-7 -12 -10 -23 -8 -26 3 -3 11 5 17 17 15 28 8 35 -9 9z"/>
<path d="M3725 1290 c-3 -5 -2 -17 3 -26 8 -14 10 -12 10 9 0 29 -3 33 -13 17z"/>
<path d="M750 1285 c0 -5 18 -30 41 -55 22 -25 36 -36 30 -25 -14 28 -70 92
-71 80z"/>
<path d="M4431 1274 c0 -11 3 -14 6 -6 3 7 2 16 -1 19 -3 4 -6 -2 -5 -13z"/>
<path d="M3770 1255 c-7 -9 -8 -15 -2 -15 5 0 12 7 16 15 3 8 4 15 2 15 -2 0
-9 -7 -16 -15z"/>
<path d="M3550 1228 c-12 -22 -12 -22 6 -6 10 10 15 20 12 24 -4 3 -12 -5 -18
-18z"/>
<path d="M3417 1182 c-58 -58 -62 -76 -6 -25 35 33 66 73 56 73 -1 0 -24 -22
-50 -48z"/>
<path d="M4093 1207 c-35 -39 -37 -53 -2 -20 18 18 31 35 28 38 -3 3 -15 -5
-26 -18z"/>
<path d="M1320 1198 c0 -9 5 -20 10 -23 13 -8 13 5 0 25 -8 13 -10 13 -10 -2z"/>
<path d="M3197 1146 c-102 -70 -107 -78 -22 -31 62 33 129 86 108 84 -4 0 -43
-24 -86 -53z"/>
<path d="M3505 1135 c-37 -31 -80 -62 -95 -70 -15 -8 -35 -26 -44 -40 -39 -59
-282 -192 -526 -288 -148 -58 -302 -103 -437 -126 -60 -11 -95 -20 -80 -20 19
-1 26 -5 21 -13 -5 -8 0 -9 17 -5 13 4 53 8 89 8 l65 2 -55 7 c-64 7 -51 12
75 30 216 31 620 209 826 365 75 57 232 205 218 205 -4 0 -37 -25 -74 -55z"/>
<path d="M516 1167 c3 -10 9 -15 12 -12 3 3 0 11 -7 18 -10 9 -11 8 -5 -6z"/>
<path d="M3149 1153 c-13 -16 -12 -17 4 -4 9 7 17 15 17 17 0 8 -8 3 -21 -13z"/>
<path d="M3666 1151 c-13 -14 -26 -19 -42 -15 -23 6 -25 4 -28 -33 -1 -7 -46
-58 -101 -115 -97 -100 -90 -112 10 -17 28 25 81 76 119 111 38 36 67 70 65
77 -3 9 -10 6 -23 -8z m-46 -36 c-7 -9 -15 -13 -19 -10 -3 3 1 10 9 15 21 14
24 12 10 -5z"/>
<path d="M3786 1154 c-4 -10 -1 -14 6 -12 15 5 23 28 10 28 -5 0 -13 -7 -16
-16z"/>
<path d="M867 1144 c6 -16 19 -18 27 -5 3 5 -3 11 -13 14 -14 3 -18 1 -14 -9z"/>
<path d="M4325 1068 c-153 -202 -304 -337 -572 -513 -57 -36 -103 -69 -103
-72 0 -8 149 76 227 129 154 103 325 262 424 393 43 57 105 155 97 155 -1 0
-34 -42 -73 -92z"/>
<path d="M560 1145 c0 -12 63 -95 68 -90 3 2 -8 23 -23 45 -28 40 -45 57 -45
45z"/>
<path d="M3064 1096 c-27 -19 -77 -49 -111 -66 -63 -31 -76 -46 -48 -57 37
-13 152 53 141 82 -3 8 -2 15 2 15 10 0 79 59 71 60 -4 0 -29 -15 -55 -34z
m-54 -71 c0 -7 -77 -45 -92 -45 -27 0 34 34 90 49 1 1 2 -1 2 -4z"/>
<path d="M560 1103 c0 -6 8 -17 18 -24 16 -13 16 -13 2 6 -8 11 -16 22 -17 24
-2 2 -3 0 -3 -6z"/>
<path d="M4082 1079 c-11 -18 -11 -23 5 -34 15 -11 20 -10 34 13 11 19 13 29
5 34 -18 13 -31 9 -44 -13z"/>
<path d="M4180 1064 c-14 -18 -30 -34 -37 -34 -11 0 -29 -38 -21 -45 10 -10
48 9 48 24 0 10 6 26 14 36 12 16 16 17 30 6 13 -11 16 -11 16 0 0 8 -6 21
-13 30 -11 15 -15 13 -37 -17z"/>
<path d="M940 1068 c0 -3 11 -18 24 -33 13 -15 22 -33 20 -40 -6 -13 30 -48
54 -52 50 -10 63 -10 53 0 -6 6 -22 12 -37 13 -32 3 -49 18 -40 33 11 17 39
13 32 -4 -3 -8 -1 -15 4 -15 13 0 13 27 0 35 -5 3 -7 11 -5 18 7 18 -11 41
-25 32 -9 -6 -8 -10 5 -18 14 -7 15 -11 4 -18 -16 -10 -49 16 -50 40 0 11 -2
12 -6 3 -4 -10 -8 -10 -19 -1 -8 6 -14 9 -14 7z"/>
<path d="M3294 1046 c-10 -8 -16 -17 -13 -20 3 -3 14 3 24 14 21 23 17 26 -11
6z"/>
<path d="M660 1016 c0 -9 5 -16 10 -16 6 0 10 4 10 9 0 6 -4 13 -10 16 -5 3
-10 -1 -10 -9z"/>
<path d="M729 1012 c6 -12 16 -24 22 -28 8 -4 8 -1 0 14 -6 12 -16 24 -22 28
-8 4 -8 1 0 -14z"/>
<path d="M3886 984 c-20 -26 -36 -52 -36 -57 0 -13 3 -9 49 51 19 24 31 45 28
48 -3 3 -21 -16 -41 -42z"/>
<path d="M2758 963 c6 -2 18 -2 25 0 6 3 1 5 -13 5 -14 0 -19 -2 -12 -5z"/>
<path d="M2858 963 c-10 -2 -18 -9 -18 -14 0 -6 8 -5 20 1 11 6 20 13 20 15 0
3 -1 4 -2 4 -2 -1 -11 -3 -20 -6z"/>
<path d="M3339 941 c-23 -20 -23 -20 -2 -14 12 3 24 11 27 19 7 19 3 18 -25
-5z"/>
<path d="M4115 935 c-16 -13 -26 -27 -22 -31 8 -8 34 12 48 38 12 23 10 22
-26 -7z"/>
<path d="M1320 912 c0 -17 25 -32 54 -32 l30 0 -39 20 c-45 23 -45 23 -45 12z"/>
<path d="M2892 908 c-14 -14 -16 -28 -2 -28 5 0 14 9 20 20 12 22 1 27 -18 8z"/>
<path d="M3804 901 c3 -5 -2 -15 -11 -22 -15 -12 -16 -12 -9 5 7 20 7 20 -15
0 -11 -10 -27 -31 -35 -46 -8 -16 -21 -28 -29 -28 -14 0 -20 -12 -16 -34 2
-12 -19 -36 -32 -36 -7 0 -7 4 1 12 30 30 7 25 -45 -11 -84 -57 -397 -191
-703 -302 l-65 -24 45 -6 c25 -3 47 -3 50 0 3 3 25 7 50 7 93 3 395 120 485
187 43 32 7 23 -53 -14 -35 -21 -88 -43 -118 -50 -34 -8 -50 -15 -42 -20 12
-7 6 -11 -62 -35 -19 -7 -162 -34 -175 -33 -5 0 42 18 105 39 63 22 175 69
249 105 92 45 136 62 141 54 5 -7 17 -8 31 -4 34 11 159 113 159 130 0 8 5 15
11 15 6 0 35 21 64 47 40 36 51 51 43 60 -12 15 -32 18 -24 4z m-185 -197
c-26 -28 -79 -60 -78 -47 0 10 80 71 93 72 5 1 -1 -11 -15 -25z"/>
<path d="M2830 890 c-13 -8 -13 -10 2 -10 9 0 20 5 23 10 8 13 -5 13 -25 0z"/>
<path d="M4110 885 c-7 -8 -17 -15 -23 -15 -6 0 -19 -7 -29 -17 -11 -9 -18
-11 -18 -5 0 7 -7 12 -15 12 -8 0 -15 -7 -15 -15 0 -8 -7 -15 -15 -15 -8 0
-19 -9 -24 -19 -6 -10 -54 -56 -107 -102 -78 -67 -102 -83 -125 -81 -16 1 -29
-3 -29 -9 0 -7 -10 -9 -25 -6 -18 3 -53 -10 -111 -39 -47 -24 -94 -44 -105
-44 -27 0 -97 -31 -82 -37 6 -2 25 3 42 12 17 8 31 11 31 6 0 -5 -14 -14 -30
-21 -17 -7 -29 -15 -26 -17 3 -3 33 9 68 26 35 17 91 39 126 50 53 16 61 17
50 4 -11 -14 -8 -14 20 1 18 9 30 21 27 25 -6 10 12 25 40 34 20 7 20 7 1 -8
-13 -9 -15 -15 -7 -15 8 0 46 26 85 58 39 31 89 66 112 78 57 29 79 46 87 67
3 9 10 16 14 15 4 -1 19 8 33 19 14 12 39 33 55 47 17 14 25 26 19 26 -6 0
-17 -7 -24 -15z"/>
<path d="M2680 870 c-8 -5 -10 -10 -5 -10 6 0 17 5 25 10 8 5 11 10 5 10 -5 0
-17 -5 -25 -10z"/>
<path d="M900 861 c0 -6 4 -13 10 -16 6 -3 7 1 4 9 -7 18 -14 21 -14 7z"/>
<path d="M1399 847 c33 -40 309 -197 346 -197 18 0 18 1 -1 15 -17 13 -15 14
36 16 l55 1 -77 13 c-42 7 -93 18 -114 25 -48 16 -136 68 -147 86 -9 15 -47
37 -87 49 -22 7 -23 6 -11 -8z"/>
<path d="M3200 850 c-12 -8 -11 -10 7 -10 12 0 25 5 28 10 8 13 -15 13 -35 0z"/>
<path d="M1086 816 c3 -9 11 -16 16 -16 13 0 5 23 -10 28 -7 2 -10 -2 -6 -12z"/>
<path d="M3100 800 c-19 -11 -29 -19 -22 -20 14 0 72 28 72 35 0 9 -15 4 -50
-15z"/>
<path d="M1145 790 c10 -11 23 -20 28 -20 6 0 2 9 -8 20 -10 11 -23 20 -28 20
-6 0 -2 -9 8 -20z"/>
<path d="M3217 759 c7 -7 15 -10 18 -7 3 3 -2 9 -12 12 -14 6 -15 5 -6 -5z"/>
<path d="M2430 750 c-13 -8 -13 -10 2 -10 9 0 20 5 23 10 8 13 -5 13 -25 0z"/>
<path d="M2725 740 c-16 -7 -17 -9 -3 -9 9 -1 20 4 23 9 7 11 7 11 -20 0z"/>
<path d="M3134 735 c-16 -12 -16 -14 -3 -15 9 0 22 7 29 15 16 19 0 19 -26 0z"/>
<path d="M915 730 c3 -5 11 -10 16 -10 6 0 7 5 4 10 -3 6 -11 10 -16 10 -6 0
-7 -4 -4 -10z"/>
<path d="M1295 730 c-3 -5 -1 -10 4 -10 6 0 11 5 11 10 0 6 -2 10 -4 10 -3 0
-8 -4 -11 -10z"/>
<path d="M1160 724 c0 -15 27 -50 34 -43 4 3 -2 17 -13 30 -11 13 -20 19 -21
13z"/>
<path d="M2642 719 c-13 -5 -20 -13 -17 -19 7 -11 39 2 50 20 7 12 -2 12 -33
-1z"/>
<path d="M2900 710 c0 -5 6 -10 14 -10 8 0 18 5 21 10 3 6 -3 10 -14 10 -12 0
-21 -4 -21 -10z"/>
<path d="M3136 705 c-16 -12 -17 -15 -4 -15 8 0 21 7 28 15 16 19 1 19 -24 0z"/>
<path d="M2228 703 c6 -2 18 -2 25 0 6 3 1 5 -13 5 -14 0 -19 -2 -12 -5z"/>
<path d="M3020 700 c-8 -5 -10 -10 -5 -10 6 0 17 5 25 10 8 5 11 10 5 10 -5 0
-17 -5 -25 -10z"/>
<path d="M2128 693 c12 -2 32 -2 45 0 12 2 2 4 -23 4 -25 0 -35 -2 -22 -4z"/>
<path d="M3160 684 l-25 -14 29 2 c16 2 31 9 34 16 5 16 -7 15 -38 -4z"/>
<path d="M3055 663 c-47 -19 -50 -21 -43 -29 6 -6 88 33 88 41 0 6 2 7 -45
-12z"/>
<path d="M2200 660 c-34 -7 -34 -7 12 -9 26 0 50 4 53 9 7 11 -12 11 -65 0z"/>
<path d="M1357 639 c12 -13 37 -33 55 -43 l33 -19 -22 24 c-12 13 -37 33 -55
43 l-33 19 22 -24z"/>
<path d="M1940 650 c-19 -12 106 -12 135 0 14 6 -2 9 -50 9 -38 0 -77 -4 -85
-9z"/>
<path d="M2651 629 c-43 -8 -58 -15 -50 -23 2 -2 42 5 89 15 62 13 74 17 45
17 -22 0 -60 -4 -84 -9z"/>
<path d="M2927 613 c-15 -8 -25 -18 -22 -24 7 -10 55 18 55 32 0 5 -1 9 -2 8
-2 -1 -15 -8 -31 -16z"/>
<path d="M2830 580 c0 -5 9 -10 20 -10 11 0 20 5 20 10 0 6 -9 10 -20 10 -11
0 -20 -4 -20 -10z"/>
<path d="M3509 473 c-13 -15 -12 -15 9 -4 23 12 28 21 13 21 -5 0 -15 -7 -22
-17z"/>
<path d="M3443 450 c-13 -5 -23 -11 -23 -14 0 -7 40 6 46 15 6 10 6 10 -23 -1z"/>
<path d="M2805 440 c-13 -6 -15 -9 -5 -9 8 0 22 4 30 9 18 12 2 12 -25 0z"/>
<path d="M1800 430 c0 -5 5 -10 11 -10 5 0 7 5 4 10 -3 6 -8 10 -11 10 -2 0
-4 -4 -4 -10z"/>
<path d="M3530 430 c-13 -8 -13 -10 2 -10 9 0 20 5 23 10 8 13 -5 13 -25 0z"/>
<path d="M3090 350 c-22 -7 -21 -8 13 -9 20 -1 37 4 37 9 0 11 -14 11 -50 0z"/>
<path d="M2600 260 c0 -5 5 -10 10 -10 6 0 10 5 10 10 0 6 -4 10 -10 10 -5 0
-10 -4 -10 -10z"/>
</g>
</svg>
