<?xml version="1.0" standalone="no"?>
<!DOCTYPE svg PUBLIC "-//W3C//DTD SVG 20010904//EN"
 "http://www.w3.org/TR/2001/REC-SVG-20010904/DTD/svg10.dtd">
<svg version="1.0" xmlns="http://www.w3.org/2000/svg"
 width="500.000000pt" height="500.000000pt" viewBox="0 0 500.000000 500.000000"
 preserveAspectRatio="xMidYMid meet">
<metadata>
Created by potrace 1.14, written by Peter Selinger 2001-2017
</metadata>
<g transform="translate(0.000000,500.000000) scale(0.100000,-0.100000)"
fill="#000000" stroke="none">
<path d="M2325 4569 c-112 -9 -159 -16 -300 -44 -18 -4 -205 -58 -249 -72 -13
-4 -17 -2 -12 5 10 17 -1 15 -75 -9 -60 -20 -114 -50 -60 -34 13 4 30 8 37 9
7 1 17 5 20 9 10 9 24 9 24 -1 0 -4 -16 -14 -36 -21 -19 -7 -34 -15 -31 -17 2
-3 29 4 58 15 109 39 294 89 241 65 -6 -3 -9 -10 -6 -15 3 -6 11 -6 20 2 7 6
12 15 9 19 -4 6 103 33 185 46 14 3 36 7 50 9 14 3 50 8 80 10 30 3 64 7 75 9
11 3 47 5 79 5 33 1 57 3 55 6 -9 9 -76 10 -164 4z"/>
<path d="M2376 4511 c-6 -9 -42 -18 -111 -27 -71 -10 -269 -52 -299 -64 -16
-6 -34 -17 -40 -24 -11 -13 -124 -65 -242 -111 -52 -20 -101 -30 -161 -34 -7
-1 -13 -6 -13 -12 0 -8 15 -9 48 -4 l47 7 -35 -26 c-48 -36 -105 -61 -170 -77
-68 -16 -85 -29 -40 -30 42 0 44 1 -135 -64 -177 -63 -391 -153 -418 -176 -31
-26 -5 -23 52 6 27 13 60 26 74 29 13 2 33 9 43 15 39 22 124 49 130 40 3 -5
0 -9 -5 -9 -6 0 -11 -5 -11 -11 0 -6 -15 -24 -32 -40 -18 -16 -29 -29 -25 -29
12 0 68 32 85 48 17 16 72 44 72 37 0 -3 -34 -38 -75 -79 -73 -72 -147 -126
-193 -140 -12 -4 -32 -25 -45 -47 -15 -26 -33 -43 -57 -50 -63 -21 -178 -156
-359 -419 -39 -57 -71 -101 -71 -98 0 25 66 183 88 210 10 12 11 18 1 24 -17
10 -69 -53 -107 -130 -73 -149 -157 -491 -187 -768 -3 -29 -8 -62 -10 -73 -2
-11 -4 -38 -4 -59 -1 -29 -4 -37 -12 -29 -6 6 -13 66 -16 140 -5 121 -13 157
-30 139 -11 -11 -3 -196 12 -276 1 -8 6 -33 9 -55 4 -22 11 -67 17 -100 6 -33
13 -71 15 -85 12 -74 68 -282 80 -297 13 -16 13 -15 4 11 -16 44 -3 44 15 0
38 -90 54 -134 49 -134 -4 0 -2 -6 4 -13 6 -7 20 -39 33 -72 12 -33 29 -71 39
-85 9 -14 43 -74 74 -134 32 -60 63 -117 69 -128 16 -25 30 -23 17 2 -6 11 -8
25 -5 30 3 5 -5 19 -18 30 -14 12 -41 57 -62 101 -35 75 -36 81 -20 93 14 10
15 17 6 34 -7 14 -8 23 -1 27 5 3 10 1 10 -5 0 -7 7 -10 14 -7 11 4 13 1 10
-11 -5 -15 -4 -15 5 -1 12 18 -2 79 -26 116 -9 13 -16 31 -17 41 -1 9 -9 31
-17 47 -9 17 -19 41 -23 55 -5 17 0 13 14 -12 28 -51 40 -56 28 -11 -13 47
-15 57 -16 63 0 3 -5 17 -11 31 -5 15 -12 44 -16 66 -3 21 -7 48 -9 60 -3 12
1 24 8 26 9 4 17 -16 25 -66 24 -137 69 -317 106 -426 13 -40 23 -76 22 -80
-1 -3 8 -17 20 -30 13 -14 34 -60 49 -105 14 -44 34 -97 45 -118 11 -21 17
-38 15 -38 -3 0 6 -12 19 -26 14 -15 25 -33 25 -40 0 -8 5 -14 10 -14 7 0 7 7
0 21 -26 48 16 33 50 -18 41 -62 77 -95 99 -91 16 2 9 14 -45 71 -35 38 -64
76 -64 85 0 12 8 8 30 -13 35 -34 40 -27 7 12 -40 48 -79 88 -72 74 4 -7 2
-17 -5 -21 -9 -6 -7 -11 9 -19 11 -7 21 -17 21 -23 0 -16 -28 10 -61 59 -39
56 -109 212 -102 229 2 6 13 14 24 17 25 7 24 21 -4 35 -19 9 -19 11 -3 11 13
1 16 6 11 18 -4 10 -14 36 -22 58 -8 22 -20 54 -27 70 -15 36 -66 184 -71 205
-2 8 -8 27 -13 41 -12 30 -7 40 14 32 18 -7 19 31 0 46 -7 6 -11 22 -8 36 2
14 1 33 -3 42 -4 10 -8 36 -9 58 -2 22 -6 57 -10 78 -7 32 -6 36 8 31 13 -5
16 1 16 26 0 17 -5 41 -11 52 -8 15 -8 23 2 32 9 8 10 8 4 -4 -6 -11 -5 -12 4
-4 7 6 13 39 14 72 2 90 8 79 32 -67 9 -52 15 -30 16 55 1 136 12 234 29 261
9 14 10 1 4 -52 -11 -108 -13 -481 -2 -528 30 -136 63 -254 74 -268 8 -8 14
-22 14 -29 0 -7 2 -11 5 -8 3 2 -6 54 -20 114 -31 140 -35 174 -24 174 6 0 5
8 -1 20 -6 11 -13 37 -15 58 -3 20 -7 53 -10 72 -4 27 -3 31 5 18 6 -9 13 -36
16 -60 3 -24 11 -47 16 -53 7 -7 8 5 4 36 -17 121 -17 129 -1 123 8 -4 15 -18
15 -34 0 -33 10 -43 30 -29 12 8 12 12 3 16 -7 2 -13 10 -13 18 0 7 -7 18 -15
25 -8 7 -15 23 -15 37 0 14 -4 21 -10 18 -11 -7 -8 30 3 41 3 4 3 14 -2 23
-11 20 6 172 20 186 8 7 9 -7 6 -48 -7 -86 11 -56 33 57 22 109 25 148 7 99
-7 -17 -15 -34 -18 -37 -12 -12 1 89 15 119 7 16 24 54 37 83 12 28 26 52 31
52 4 0 8 7 8 16 0 23 59 142 97 195 34 48 41 77 22 96 -8 8 -7 13 1 18 7 4 16
1 21 -6 7 -11 9 -10 9 3 0 30 66 125 129 185 39 37 57 43 41 14 -7 -13 -7 -22
0 -26 5 -3 10 -1 10 5 0 6 4 8 10 5 16 -10 12 -32 -7 -39 -9 -4 -20 -2 -23 5
-4 6 -10 2 -13 -12 -8 -30 -4 -33 22 -19 25 13 27 3 6 -28 -9 -12 -32 -54 -52
-94 -19 -40 -42 -77 -50 -83 -8 -6 -13 -20 -11 -31 2 -11 -2 -18 -9 -16 -7 1
-13 -7 -13 -17 0 -10 -29 -75 -66 -144 -97 -188 -133 -290 -149 -432 -2 -16
-10 -84 -18 -150 -9 -66 -19 -154 -22 -195 -3 -41 -8 -97 -12 -125 -13 -116
-10 -199 9 -225 10 -14 20 -35 23 -48 2 -12 6 -26 9 -31 4 -5 1 -11 -4 -13 -7
-2 -4 -19 8 -46 10 -23 22 -39 27 -34 5 4 5 1 1 -6 -5 -8 -1 -21 10 -33 9 -10
15 -22 11 -25 -3 -3 1 -24 9 -46 7 -22 11 -44 8 -49 -3 -5 -1 -9 3 -9 5 0 17
-30 27 -66 10 -36 25 -68 33 -71 7 -3 21 -20 29 -37 13 -28 13 -29 0 -12 -8
10 -17 24 -19 30 -2 6 -6 9 -9 6 -3 -3 10 -44 29 -91 26 -66 40 -90 61 -100
15 -8 28 -22 30 -33 4 -23 -19 -17 -33 10 -5 10 -18 20 -27 20 -24 2 -23 -5 9
-38 17 -17 22 -28 13 -28 -8 0 -3 -12 15 -30 15 -16 31 -29 34 -28 3 0 8 -1
11 -2 3 -1 16 -4 30 -5 14 -1 34 -6 45 -10 15 -6 14 -3 -5 11 -14 10 -38 19
-54 20 -28 2 -49 21 -40 36 9 15 34 9 28 -7 -4 -8 -2 -15 3 -15 22 0 22 15 1
38 -13 14 -17 22 -9 17 18 -10 5 33 -16 54 -13 13 -13 16 -1 25 18 13 12 37
-7 30 -9 -4 -24 15 -45 57 -51 100 -122 289 -117 312 3 19 4 18 12 -8 4 -16
36 -77 69 -135 34 -58 66 -117 71 -131 16 -42 203 -247 263 -288 71 -49 45 0
-58 109 -218 231 -339 589 -345 1016 -1 99 1 202 5 227 4 26 4 47 0 47 -12 0
-28 -52 -29 -99 -1 -24 -8 -56 -16 -70 -14 -25 -14 -25 -16 27 -3 135 0 180
11 162 7 -11 11 -8 20 15 6 16 9 40 7 54 l-3 26 -12 -27 c-13 -31 -26 -38 -19
-10 3 9 10 39 17 65 8 31 17 46 25 43 8 -3 15 5 18 20 7 36 -21 30 -38 -8 -21
-49 -18 -9 5 57 11 31 17 61 14 66 -3 5 0 9 6 9 7 0 10 7 6 15 -3 8 -1 15 4
15 5 0 7 7 4 15 -4 8 -1 15 5 15 6 0 11 9 11 21 0 13 4 18 12 13 8 -5 9 0 6
14 -4 15 -2 22 8 22 20 0 18 -14 -13 -73 -14 -29 -27 -61 -29 -72 -2 -11 -6
-31 -10 -45 -7 -22 -5 -23 8 -12 9 7 31 48 49 92 33 81 46 99 29 42 -11 -40 3
-34 20 9 10 24 10 33 1 38 -8 5 -1 23 25 60 26 39 33 56 25 64 -6 6 -11 15
-11 21 0 6 5 5 12 -2 15 -15 42 -16 32 0 -5 7 -3 8 5 4 8 -5 14 0 18 13 3 12
9 21 14 21 8 0 -36 -131 -75 -224 -9 -21 -16 -52 -16 -69 0 -17 -7 -38 -16
-48 -12 -14 -14 -24 -6 -46 9 -27 10 -26 26 32 39 140 48 164 76 200 17 21 30
41 30 45 0 4 9 17 20 30 11 13 25 40 30 60 5 20 19 45 29 54 11 10 25 31 32
47 16 40 31 23 19 -21 -6 -19 -10 -51 -10 -70 l0 -35 20 43 c10 23 24 42 30
42 5 0 10 11 10 24 0 35 10 56 26 56 8 0 14 8 14 17 0 16 40 82 67 111 20 21
24 -5 6 -43 -17 -36 -17 -37 2 -51 18 -14 21 -12 29 13 10 31 56 84 56 65 0
-7 -9 -31 -21 -54 -12 -23 -19 -52 -16 -65 3 -15 -1 -27 -9 -30 -7 -2 -10 -11
-7 -19 7 -19 29 -2 39 29 28 94 236 342 324 387 20 10 45 30 55 45 24 32 149
136 167 139 7 1 18 5 25 9 7 4 30 14 53 22 36 13 42 13 46 0 4 -8 11 -12 17
-8 13 8 91 16 165 17 52 1 68 9 33 19 -10 2 -39 4 -65 3 -41 -1 -45 1 -40 17
5 15 2 18 -13 14 -85 -25 -107 -14 -38 19 47 22 68 23 82 5 8 -11 12 -12 13
-3 0 6 10 12 22 12 12 0 29 6 37 14 9 8 43 18 76 21 69 8 76 12 53 29 -10 7
-15 16 -11 19 10 11 23 8 21 -3 -2 -6 30 -12 79 -14 45 -3 88 -8 94 -12 7 -4
10 -3 6 2 -3 5 -41 27 -86 48 -72 36 -97 61 -53 54 10 -1 31 6 49 15 18 9 46
17 63 17 17 0 45 8 63 17 18 9 46 17 62 18 17 2 29 7 27 14 -4 22 22 36 68 37
241 5 372 15 386 29 14 13 13 15 -3 15 -10 0 -32 -4 -50 -9 -21 -6 -35 -5 -42
2 -8 8 -20 8 -44 0 -35 -12 -152 -12 -164 1 -4 4 -3 7 2 6 28 -6 57 2 75 20
11 11 25 20 32 20 6 0 9 3 6 6 -8 7 -35 12 -71 13 -16 1 -26 5 -22 11 4 6 10
8 15 5 5 -3 11 -1 15 5 3 5 -3 10 -14 10 -14 0 -19 5 -15 15 4 10 20 14 52 14
67 -1 86 0 80 7 -4 3 -12 7 -20 8 -7 2 -21 6 -31 11 -9 4 -32 4 -50 1 -65 -13
-102 -14 -109 -3 -5 9 -54 19 -98 20 -27 1 -224 -15 -230 -18 -3 -1 -41 -5
-85 -8 l-80 -6 55 15 c30 7 78 16 105 19 28 3 61 7 75 10 14 3 82 8 152 12 95
4 131 3 142 -7 20 -15 85 -19 96 -5 6 8 -2 11 -24 12 -19 1 -42 6 -52 11 -13
7 2 9 55 6 71 -4 72 -4 69 18 -2 15 -11 24 -26 26 -12 2 -20 8 -17 13 9 13 -2
11 -28 -5 -25 -16 -137 -27 -137 -14 0 4 -5 8 -11 8 -5 0 -7 -4 -4 -10 4 -6
-7 -10 -27 -10 -31 -1 -66 -4 -145 -14 -21 -3 -40 1 -54 13 -19 15 -26 16 -48
5 -29 -14 -141 -31 -141 -21 0 7 74 28 110 31 14 1 31 5 38 9 6 5 17 5 22 2 6
-3 10 -1 10 5 0 7 6 8 18 1 19 -10 37 -3 98 36 19 13 19 13 0 28 -25 19 -36
19 -36 0 0 -18 -41 -20 -58 -3 -8 8 -15 8 -28 -3 -13 -11 -18 -11 -21 -1 -3 6
-9 12 -14 12 -6 0 -7 -4 -4 -10 3 -5 -1 -10 -9 -10 -10 0 -13 6 -10 15 6 14
-6 19 -43 18 -7 -1 -13 3 -13 7 0 11 219 3 234 -8 13 -11 196 -3 196 8 0 5 9
6 20 3 11 -3 20 -9 20 -14 0 -8 -69 -20 -105 -17 -63 3 -95 -3 -95 -18 0 -14
8 -15 48 -9 26 4 65 8 88 10 22 1 49 7 60 13 15 8 30 5 62 -9 69 -32 141 -42
169 -23 42 27 44 72 3 46 -27 -17 -43 -15 -36 3 5 13 2 14 -15 4 -24 -13 -61
-5 -83 17 -9 8 -16 11 -16 6 0 -6 -14 -7 -37 -1 -21 5 -114 12 -208 16 -116 4
-179 10 -198 20 -33 17 -173 26 -198 12 -19 -10 -37 5 -19 16 5 3 10 10 10 16
0 11 -17 12 -24 0z m-226 -73 c-14 -6 -34 -15 -46 -20 -11 -5 -38 -8 -60 -6
-36 3 -33 4 36 19 89 20 104 21 70 7z m305 2 c-3 -5 -10 -10 -16 -10 -5 0 -9
5 -9 10 0 6 7 10 16 10 8 0 12 -4 9 -10z m-27 -24 l47 3 -45 -9 c-50 -11 -93
-4 -69 11 8 4 15 5 17 0 2 -5 24 -7 50 -5z m-98 -1 c0 -5 -72 -25 -115 -32
-24 -4 -286 -90 -390 -128 -16 -5 -17 -5 -5 4 13 9 13 11 -2 11 -10 0 -27 -9
-39 -21 -11 -11 -27 -18 -35 -15 -8 3 -13 2 -10 -3 7 -10 -112 -57 -121 -48
-10 10 21 34 93 70 175 88 341 137 513 153 30 2 57 7 60 9 6 6 51 6 51 0z
m100 -67 c0 -6 -6 -5 -15 2 -8 7 -15 14 -15 16 0 2 7 1 15 -2 8 -4 15 -11 15
-16z m157 -84 c-3 -3 -12 -4 -19 -1 -8 3 -5 6 6 6 11 1 17 -2 13 -5z m-382
-82 c-3 -3 -11 0 -18 7 -9 10 -8 11 6 5 10 -3 15 -9 12 -12z m752 -19 c2 -6
-18 -16 -44 -23 -57 -16 -51 -14 -86 -28 -39 -16 -64 -15 -64 3 0 8 8 15 17
15 24 0 32 11 18 27 -11 14 3 13 57 -1 6 -2 26 3 45 10 39 14 52 13 57 -3z
m-867 -23 c0 -5 -5 -10 -11 -10 -5 0 -7 5 -4 10 3 6 8 10 11 10 2 0 4 -4 4
-10z m620 1 c-8 -5 -26 -11 -40 -15 -21 -5 -20 -3 5 9 32 15 60 20 35 6z
m-699 -44 c-4 -4 -25 -10 -47 -13 -33 -5 -37 -3 -23 8 17 14 84 19 70 5z m656
-33 c-3 -3 -12 -4 -19 -1 -8 3 -5 6 6 6 11 1 17 -2 13 -5z m266 -11 c-7 -2
-21 -2 -30 0 -10 3 -4 5 12 5 17 0 24 -2 18 -5z m-1746 -73 c-63 -33 -71 -35
-62 -20 3 6 1 10 -5 10 -6 0 -8 5 -5 11 4 6 13 8 21 5 7 -3 28 1 46 9 60 26
63 15 5 -15z m1523 26 c0 -3 -24 -12 -52 -21 -29 -10 -62 -25 -73 -35 -11 -10
-31 -21 -44 -25 -30 -9 -111 -12 -111 -4 0 7 79 44 150 69 49 17 130 27 130
16z m-335 -126 c-3 -5 -12 -10 -18 -10 -7 0 -6 4 3 10 19 12 23 12 15 0z
m-205 -204 c0 -3 -4 -8 -10 -11 -5 -3 -10 -1 -10 4 0 6 5 11 10 11 6 0 10 -2
10 -4z m-887 -40 c-10 -16 -73 -70 -73 -62 0 6 71 76 78 76 1 0 -1 -6 -5 -14z
m-150 -41 c-3 -9 -8 -14 -10 -11 -3 3 -2 9 2 15 9 16 15 13 8 -4z m-137 -183
c-36 -35 -37 -36 -20 -7 20 34 45 57 53 50 3 -3 -12 -22 -33 -43z m-218 -5
c-6 -20 -15 -37 -20 -37 -11 0 -10 4 9 45 21 44 26 40 11 -8z m412 -6 c0 -15
-31 -42 -40 -36 -14 9 1 37 16 31 8 -3 14 -1 14 4 0 6 2 10 5 10 3 0 5 -4 5
-9z m-409 -68 c-11 -21 -30 -60 -43 -88 -13 -27 -29 -49 -36 -47 -10 2 -17
-12 -10 -20 1 -2 -31 -67 -72 -145 -110 -210 -101 -165 16 82 l14 30 -23 -27
c-12 -15 -30 -37 -39 -50 -10 -13 0 13 21 57 47 96 96 165 116 165 8 0 15 9
15 20 0 11 8 24 18 27 9 4 21 12 25 20 18 29 16 11 -2 -24z m-58 11 c3 -4 -5
-16 -19 -26 -30 -25 -39 -20 -18 10 15 23 26 27 37 16z m-63 -45 c0 -9 -46
-77 -61 -89 -3 -3 -19 -33 -34 -68 -21 -48 -31 -60 -41 -51 -10 8 -16 -3 -30
-48 -9 -32 -25 -83 -35 -113 -9 -30 -32 -102 -49 -160 -18 -58 -33 -109 -35
-115 -2 -5 -4 17 -5 50 -1 48 -3 55 -11 37 -5 -13 -11 -33 -13 -45 -28 -144
-58 -312 -62 -352 -7 -64 -14 -70 -15 -14 0 24 -2 55 -3 69 -2 14 2 44 9 67 7
23 11 44 8 46 -2 3 2 30 10 61 9 31 11 58 6 61 -4 3 -4 17 1 30 5 14 6 25 3
25 -4 0 -2 5 5 12 7 7 12 17 12 22 0 6 -5 4 -10 -4 -6 -9 -10 -10 -10 -3 0 7
6 16 13 20 7 4 26 39 41 76 19 45 32 64 37 56 5 -8 8 -2 7 16 0 17 4 42 10 56
22 55 103 215 122 239 l19 25 -6 -25 c-3 -14 -9 -30 -14 -35 -4 -6 -4 -17 1
-25 8 -13 10 -12 10 2 0 22 51 117 83 152 9 11 17 23 17 28 0 4 5 8 10 8 6 0
10 -5 10 -11z m145 -90 c-9 -17 -19 -29 -22 -26 -5 5 25 57 33 57 3 0 -3 -14
-11 -31z m-75 -41 c0 -7 -16 -42 -35 -77 -19 -35 -32 -68 -29 -72 3 -5 -9 -24
-25 -41 -24 -26 -28 -34 -15 -38 12 -5 10 -10 -11 -30 -14 -13 -25 -31 -25
-39 0 -9 -6 -28 -14 -42 -19 -38 -94 -274 -111 -349 -15 -71 -18 -57 -15 65 2
103 7 137 25 151 8 6 12 14 8 17 -3 4 1 15 10 25 10 10 14 22 10 26 -4 4 -3
10 3 14 5 4 21 30 34 57 12 28 42 91 66 142 23 50 51 100 61 111 10 10 19 25
21 33 2 8 8 16 13 17 5 2 9 12 9 23 0 10 5 19 10 19 6 0 10 -6 10 -12z m168
-37 c18 -11 -8 -64 -43 -87 -14 -9 -25 -24 -25 -33 0 -10 -22 -62 -49 -117
-71 -142 -90 -187 -106 -251 l-15 -58 5 55 c3 30 7 66 9 80 3 14 7 41 9 60 3
22 15 43 35 60 17 14 33 40 37 60 11 52 65 149 105 187 28 28 32 36 20 43 -8
6 -10 10 -5 10 6 0 16 -4 23 -9z m152 -171 c-6 -11 -16 -20 -22 -20 -6 0 -3 9
7 20 10 11 20 20 22 20 2 0 -1 -9 -7 -20z m-667 -27 c-11 -32 -33 -59 -33 -42
0 14 27 59 35 59 3 0 2 -8 -2 -17z m-48 -116 c-8 -21 -17 -37 -19 -37 -6 0 10
55 19 70 15 24 15 1 0 -33z m282 -729 c-3 -8 -6 -5 -6 6 -1 11 2 17 5 13 3 -3
4 -12 1 -19z m-388 -202 c2 -25 -18 13 -23 44 l-6 35 14 -35 c8 -19 15 -39 15
-44z m619 -84 c4 -35 -5 -25 -12 12 -3 16 -2 25 1 22 4 -4 9 -19 11 -34z m27
-192 c3 -5 2 -10 -4 -10 -5 0 -13 5 -16 10 -3 6 -2 10 4 10 5 0 13 -4 16 -10z
m-51 -25 c3 -8 1 -15 -4 -15 -6 0 -10 7 -10 15 0 8 2 15 4 15 2 0 6 -7 10 -15z
m66 -21 c0 -8 -5 -12 -10 -9 -6 4 -8 11 -5 16 9 14 15 11 15 -7z m68 -395 c-3
-8 -7 -3 -11 10 -4 17 -3 21 5 13 5 -5 8 -16 6 -23z"/>
<path d="M380 2845 c-1 -5 -4 -23 -6 -40 -2 -24 -1 -27 7 -12 6 10 8 28 6 40
-2 12 -5 18 -7 12z"/>
<path d="M1563 4360 c-13 -5 -23 -12 -23 -16 0 -8 53 5 65 17 12 12 -12 11
-42 -1z"/>
<path d="M1450 4340 c-9 -6 -10 -10 -3 -10 6 0 15 5 18 10 8 12 4 12 -15 0z"/>
<path d="M3450 4340 c0 -5 5 -10 11 -10 5 0 7 5 4 10 -3 6 -8 10 -11 10 -2 0
-4 -4 -4 -10z"/>
<path d="M1443 4299 c-18 -5 -33 -12 -33 -15 0 -9 83 5 94 16 12 12 -16 12
-61 -1z"/>
<path d="M1610 4300 c0 -5 5 -10 10 -10 6 0 10 5 10 10 0 6 -4 10 -10 10 -5 0
-10 -4 -10 -10z"/>
<path d="M1464 4254 c-18 -14 -18 -15 4 -4 12 6 22 13 22 15 0 8 -5 6 -26 -11z"/>
<path d="M1400 4215 c-15 -8 -19 -14 -10 -14 18 -1 46 16 40 23 -3 2 -16 -2
-30 -9z"/>
<path d="M3278 4173 c7 -3 16 -2 19 1 4 3 -2 6 -13 5 -11 0 -14 -3 -6 -6z"/>
<path d="M3155 4160 c-3 -5 1 -10 9 -10 8 0 18 5 21 10 3 6 -1 10 -9 10 -8 0
-18 -4 -21 -10z"/>
<path d="M3225 4160 c4 -6 11 -8 16 -5 14 9 11 15 -7 15 -8 0 -12 -5 -9 -10z"/>
<path d="M3278 4133 c7 -3 16 -2 19 1 4 3 -2 6 -13 5 -11 0 -14 -3 -6 -6z"/>
<path d="M1240 4090 c-27 -9 -26 -9 6 -16 12 -2 27 3 34 11 14 17 3 19 -40 5z"/>
<path d="M3101 4096 c10 -10 79 -15 84 -6 4 6 -13 10 -41 10 -26 0 -45 -2 -43
-4z"/>
<path d="M2925 4000 c-3 -5 3 -10 14 -10 11 0 23 5 26 10 3 6 -3 10 -14 10
-11 0 -23 -4 -26 -10z"/>
<path d="M2605 3900 c-3 -5 -1 -10 4 -10 6 0 11 5 11 10 0 6 -2 10 -4 10 -3 0
-8 -4 -11 -10z"/>
<path d="M968 3846 c-19 -14 -24 -36 -9 -36 6 0 13 5 16 10 3 6 15 10 26 10
23 0 25 15 3 24 -19 7 -15 8 -36 -8z"/>
<path d="M750 3839 c0 -5 5 -7 10 -4 6 3 10 8 10 11 0 2 -4 4 -10 4 -5 0 -10
-5 -10 -11z"/>
<path d="M907 3833 c-4 -3 -7 -11 -7 -17 0 -6 5 -5 12 2 6 6 9 14 7 17 -3 3
-9 2 -12 -2z"/>
<path d="M694 3815 c-10 -8 -14 -15 -8 -15 5 0 19 7 30 15 10 8 14 15 8 15 -5
0 -19 -7 -30 -15z"/>
<path d="M3720 3805 c0 -8 5 -15 10 -15 6 0 10 7 10 15 0 8 -4 15 -10 15 -5 0
-10 -7 -10 -15z"/>
<path d="M930 3806 c0 -2 8 -10 18 -17 15 -13 16 -12 3 4 -13 16 -21 21 -21
13z"/>
<path d="M886 3775 c-16 -12 -17 -15 -4 -15 8 0 21 7 28 15 16 19 1 19 -24 0z"/>
<path d="M800 3769 c0 -5 5 -7 10 -4 6 3 10 8 10 11 0 2 -4 4 -10 4 -5 0 -10
-5 -10 -11z"/>
<path d="M915 3760 c-3 -5 -1 -10 4 -10 6 0 11 5 11 10 0 6 -2 10 -4 10 -3 0
-8 -4 -11 -10z"/>
<path d="M770 3750 c0 -5 5 -10 10 -10 6 0 10 5 10 10 0 6 -4 10 -10 10 -5 0
-10 -4 -10 -10z"/>
<path d="M750 3699 c0 -5 5 -7 10 -4 6 3 10 8 10 11 0 2 -4 4 -10 4 -5 0 -10
-5 -10 -11z"/>
<path d="M2420 3677 c3 -3 26 -8 53 -11 26 -4 58 -11 72 -16 16 -6 27 -6 31 1
3 6 4 12 2 14 -6 6 -164 18 -158 12z"/>
<path d="M710 3660 c0 -5 5 -10 10 -10 6 0 10 5 10 10 0 6 -4 10 -10 10 -5 0
-10 -4 -10 -10z"/>
<path d="M671 3596 c-8 -9 -11 -19 -7 -23 9 -9 29 13 24 27 -2 8 -8 7 -17 -4z"/>
<path d="M3860 3608 c0 -14 23 -58 32 -58 4 0 8 3 8 8 -1 9 -39 59 -40 50z"/>
<path d="M1985 3580 c-3 -5 -1 -10 4 -10 6 0 11 5 11 10 0 6 -2 10 -4 10 -3 0
-8 -4 -11 -10z"/>
<path d="M640 3550 c0 -5 5 -10 10 -10 6 0 10 5 10 10 0 6 -4 10 -10 10 -5 0
-10 -4 -10 -10z"/>
<path d="M3755 3530 c3 -5 8 -10 11 -10 2 0 4 5 4 10 0 6 -5 10 -11 10 -5 0
-7 -4 -4 -10z"/>
<path d="M616 3514 c-9 -22 3 -32 14 -14 12 19 12 30 1 30 -5 0 -12 -7 -15
-16z"/>
<path d="M3902 3521 c2 -7 7 -12 11 -12 12 1 9 15 -3 20 -7 2 -11 -2 -8 -8z"/>
<path d="M3918 3455 c5 -27 26 -34 35 -11 6 15 -11 36 -29 36 -7 0 -9 -10 -6
-25z"/>
<path d="M396 3409 c-15 -22 -25 -43 -22 -46 2 -3 17 14 32 36 15 23 25 44 22
46 -3 3 -17 -13 -32 -36z"/>
<path d="M3960 3428 c0 -9 5 -20 10 -23 13 -8 13 5 0 25 -8 13 -10 13 -10 -2z"/>
<path d="M4220 3376 c25 -60 107 -314 116 -362 4 -21 13 -45 21 -52 15 -16 17
-58 3 -67 -16 -10 -12 -35 5 -29 17 7 20 -7 5 -22 -7 -7 -6 -29 3 -70 8 -32
15 -95 16 -139 1 -44 4 -109 6 -144 2 -40 0 -59 -6 -50 -6 10 -9 4 -10 -21 0
-19 -2 -42 -3 -50 -2 -8 -6 -40 -10 -70 -13 -116 -62 -328 -78 -345 -7 -7 -8
-2 -3 13 3 12 2 22 -3 22 -11 0 -11 18 1 37 12 20 22 207 10 200 -6 -4 -13
-34 -16 -67 -3 -33 -10 -66 -16 -73 -5 -7 -10 -22 -9 -32 1 -11 -11 -51 -26
-88 -28 -68 -29 -101 -3 -91 21 8 -4 -124 -39 -206 -107 -252 -250 -450 -419
-585 -33 -26 -43 -31 -30 -15 11 14 24 28 30 32 23 16 -6 18 -31 1 -15 -10
-33 -18 -39 -18 -6 0 -46 -31 -88 -69 -76 -69 -114 -98 -152 -117 -11 -6 -38
-21 -60 -34 -22 -13 -53 -31 -70 -39 -16 -8 -41 -24 -55 -36 l-25 -21 35 5
c185 27 344 118 525 300 61 61 121 125 134 141 42 55 157 220 187 267 63 103
39 19 -31 -107 -18 -33 -63 -102 -99 -152 -67 -95 -73 -118 -16 -60 74 75 349
527 371 611 6 23 17 48 24 56 21 24 54 161 71 296 2 23 7 53 10 65 12 61 16
270 5 315 -6 27 -13 81 -16 119 -12 170 -32 327 -46 362 -5 13 -7 28 -5 35 1
7 1 9 -2 4 -3 -5 -30 55 -62 135 -59 151 -103 243 -120 254 -5 3 -1 -14 10
-39z m187 -1128 c-4 -51 -8 -102 -11 -113 -2 -11 -9 -54 -16 -95 -9 -55 -15
-70 -21 -55 -6 17 -8 15 -9 -10 -3 -63 -43 -225 -55 -225 -8 0 5 144 13 149 5
3 19 51 31 106 30 142 30 142 42 230 12 91 16 105 25 105 4 0 4 -42 1 -92z
m-150 -300 c-3 -8 -6 -5 -6 6 -1 11 2 17 5 13 3 -3 4 -12 1 -19z m19 -190
c-26 -86 -62 -179 -77 -199 l-19 -24 0 38 c0 20 4 37 9 37 5 0 24 36 42 80 18
44 36 80 41 80 4 0 6 -6 4 -12z"/>
<path d="M3950 3352 c0 -5 7 -16 16 -23 14 -12 16 -11 13 5 -4 20 -29 35 -29
18z"/>
<path d="M4000 3351 c0 -5 5 -13 10 -16 6 -3 10 -2 10 4 0 5 -4 13 -10 16 -5
3 -10 2 -10 -4z"/>
<path d="M4275 3350 c3 -5 11 -10 16 -10 6 0 7 5 4 10 -3 6 -11 10 -16 10 -6
0 -7 -4 -4 -10z"/>
<path d="M4300 3306 c0 -8 4 -17 9 -20 5 -4 7 3 4 14 -6 23 -13 26 -13 6z"/>
<path d="M326 3283 c-6 -14 -5 -15 5 -6 7 7 10 15 7 18 -3 3 -9 -2 -12 -12z"/>
<path d="M4000 3249 c7 -11 14 -18 17 -15 8 8 -5 36 -17 36 -7 0 -7 -6 0 -21z"/>
<path d="M1000 3230 c0 -5 5 -10 11 -10 5 0 7 5 4 10 -3 6 -8 10 -11 10 -2 0
-4 -4 -4 -10z"/>
<path d="M980 3181 c0 -25 6 -27 13 -6 4 8 2 17 -3 20 -6 4 -10 -3 -10 -14z"/>
<path d="M230 3120 c-13 -28 -29 -50 -36 -50 -8 0 -11 -6 -8 -14 3 -8 -3 -31
-14 -53 -36 -71 -78 -273 -56 -273 21 1 30 19 43 79 7 36 32 130 56 210 24 80
43 146 41 148 -1 2 -13 -20 -26 -47z"/>
<path d="M3067 3134 c-8 -8 11 -34 24 -34 5 0 9 7 9 16 0 8 -4 13 -9 10 -5 -4
-11 -1 -13 5 -2 5 -7 7 -11 3z"/>
<path d="M4166 3132 c-8 -13 3 -42 15 -42 11 0 11 21 0 39 -5 8 -11 9 -15 3z"/>
<path d="M4371 3098 c-1 -16 4 -28 9 -28 12 0 12 8 0 35 -8 18 -9 17 -9 -7z"/>
<path d="M4211 3005 c0 -16 4 -37 9 -45 8 -12 10 -11 9 5 -1 11 -5 31 -9 45
-8 24 -8 24 -9 -5z"/>
<path d="M3924 2860 c3 -41 6 -93 7 -115 1 -34 2 -36 8 -15 10 35 4 167 -9
188 -7 12 -9 -3 -6 -58z"/>
<path d="M820 2885 c-7 -9 -11 -18 -8 -20 3 -3 11 1 18 10 7 9 11 18 8 20 -3
3 -11 -1 -18 -10z"/>
<path d="M4690 2865 c0 -8 4 -15 10 -15 5 0 7 7 4 15 -4 8 -8 15 -10 15 -2 0
-4 -7 -4 -15z"/>
<path d="M4796 2845 c4 -8 8 -15 10 -15 2 0 4 7 4 15 0 8 -4 15 -10 15 -5 0
-7 -7 -4 -15z"/>
<path d="M790 2811 c-12 -23 -13 -31 -2 -31 4 0 12 11 19 25 13 29 -1 34 -17
6z"/>
<path d="M1120 2815 c0 -8 2 -15 4 -15 2 0 6 7 10 15 3 8 1 15 -4 15 -6 0 -10
-7 -10 -15z"/>
<path d="M4232 2800 c0 -14 2 -19 5 -12 2 6 2 18 0 25 -3 6 -5 1 -5 -13z"/>
<path d="M4810 2803 c0 -12 5 -25 10 -28 13 -8 13 15 0 35 -8 12 -10 11 -10
-7z"/>
<path d="M4315 2790 c-3 -5 -1 -10 4 -10 6 0 11 5 11 10 0 6 -2 10 -4 10 -3 0
-8 -4 -11 -10z"/>
<path d="M1240 2759 c0 -5 5 -7 10 -4 6 3 10 8 10 11 0 2 -4 4 -10 4 -5 0 -10
-5 -10 -11z"/>
<path d="M4501 2734 c0 -11 3 -14 6 -6 3 7 2 16 -1 19 -3 4 -6 -2 -5 -13z"/>
<path d="M1051 2725 c-1 -11 -4 -31 -6 -45 l-6 -25 11 25 c6 13 9 33 7 45 -4
19 -4 19 -6 0z"/>
<path d="M4824 2719 c29 -95 31 -182 7 -281 -7 -31 -5 -40 10 -54 21 -19 19
-38 24 186 2 91 -12 161 -34 168 -11 4 -12 -1 -7 -19z"/>
<path d="M4534 2689 c3 -24 8 -72 12 -106 8 -73 24 -86 19 -15 -8 100 -17 152
-27 158 -6 4 -8 -9 -4 -37z"/>
<path d="M105 2703 c-14 -36 -17 -101 -5 -108 7 -4 14 1 17 14 3 12 9 21 12
21 9 0 11 26 4 63 -5 31 -18 35 -28 10z"/>
<path d="M4738 2670 c2 -16 8 -28 12 -25 9 5 1 55 -9 55 -4 0 -6 -13 -3 -30z"/>
<path d="M4041 2674 c0 -11 3 -14 6 -6 3 7 2 16 -1 19 -3 4 -6 -2 -5 -13z"/>
<path d="M4087 2660 c-3 -11 -1 -23 4 -26 5 -3 9 6 9 20 0 31 -6 34 -13 6z"/>
<path d="M4500 2660 c0 -5 5 -10 11 -10 5 0 7 5 4 10 -3 6 -8 10 -11 10 -2 0
-4 -4 -4 -10z"/>
<path d="M1030 2629 c0 -5 5 -7 10 -4 6 3 10 8 10 11 0 2 -4 4 -10 4 -5 0 -10
-5 -10 -11z"/>
<path d="M3990 2624 c0 -10 5 -26 10 -34 8 -12 10 -9 7 12 -4 32 -17 50 -17
22z"/>
<path d="M4760 2610 c-1 -3 -4 -16 -6 -30 -3 -18 -2 -22 7 -13 6 6 9 19 6 29
-3 11 -6 17 -7 14z"/>
<path d="M1020 2589 c0 -5 5 -7 10 -4 6 3 10 8 10 11 0 2 -4 4 -10 4 -5 0 -10
-5 -10 -11z"/>
<path d="M1116 2584 c-9 -23 -7 -44 3 -44 11 0 21 49 11 55 -4 3 -11 -2 -14
-11z"/>
<path d="M920 2564 c0 -8 5 -12 10 -9 6 3 10 10 10 16 0 5 -4 9 -10 9 -5 0
-10 -7 -10 -16z"/>
<path d="M4085 2560 c-3 -5 -1 -10 4 -10 6 0 11 5 11 10 0 6 -2 10 -4 10 -3 0
-8 -4 -11 -10z"/>
<path d="M4320 2526 c0 -9 5 -16 10 -16 6 0 10 4 10 9 0 6 -4 13 -10 16 -5 3
-10 -1 -10 -9z"/>
<path d="M896 2513 c-9 -22 10 -41 25 -26 13 13 5 43 -10 43 -5 0 -12 -8 -15
-17z"/>
<path d="M961 2482 c-19 -71 -26 -168 -12 -176 7 -5 11 1 12 16 2 86 17 176
30 180 7 2 6 8 -3 15 -12 10 -16 4 -27 -35z"/>
<path d="M940 2510 c0 -5 5 -10 10 -10 6 0 10 5 10 10 0 6 -4 10 -10 10 -5 0
-10 -4 -10 -10z"/>
<path d="M3992 2490 c0 -14 2 -19 5 -12 2 6 2 18 0 25 -3 6 -5 1 -5 -13z"/>
<path d="M3935 2434 c-4 -31 -8 -66 -10 -78 -2 -11 -7 -39 -10 -61 -4 -22 -8
-44 -9 -50 -14 -54 -30 -107 -42 -139 -17 -44 -14 -54 8 -29 26 32 96 397 77
408 -3 3 -10 -20 -14 -51z"/>
<path d="M4086 2442 c-2 -4 -1 -14 5 -22 7 -12 9 -10 9 8 0 23 -5 28 -14 14z"/>
<path d="M740 2424 c0 -8 5 -12 10 -9 6 3 10 10 10 16 0 5 -4 9 -10 9 -5 0
-10 -7 -10 -16z"/>
<path d="M3991 2433 c0 -6 -4 -20 -7 -30 -5 -14 -4 -15 5 -7 7 7 11 20 8 30
-3 11 -5 14 -6 7z"/>
<path d="M4091 2374 c0 -11 3 -14 6 -6 3 7 2 16 -1 19 -3 4 -6 -2 -5 -13z"/>
<path d="M897 2373 c-4 -3 -7 -11 -7 -17 0 -6 5 -5 12 2 6 6 9 14 7 17 -3 3
-9 2 -12 -2z"/>
<path d="M4821 2354 c0 -11 3 -14 6 -6 3 7 2 16 -1 19 -3 4 -6 -2 -5 -13z"/>
<path d="M731 2355 c-11 -50 -11 -59 0 -48 6 6 9 21 6 34 -2 13 -5 20 -6 14z"/>
<path d="M975 2350 c-3 -5 -1 -10 4 -10 6 0 11 5 11 10 0 6 -2 10 -4 10 -3 0
-8 -4 -11 -10z"/>
<path d="M4310 2329 c0 -8 -7 -26 -14 -41 -13 -24 -13 -28 -1 -28 15 0 33 66
21 77 -3 4 -6 0 -6 -8z"/>
<path d="M691 2304 c0 -11 3 -14 6 -6 3 7 2 16 -1 19 -3 4 -6 -2 -5 -13z"/>
<path d="M975 2280 c3 -5 8 -10 11 -10 2 0 4 5 4 10 0 6 -5 10 -11 10 -5 0 -7
-4 -4 -10z"/>
<path d="M4812 2240 c0 -14 2 -19 5 -12 2 6 2 18 0 25 -3 6 -5 1 -5 -13z"/>
<path d="M4201 2226 c-6 -16 -10 -34 -8 -40 3 -6 10 2 16 18 6 16 10 34 8 40
-3 6 -10 -2 -16 -18z"/>
<path d="M1137 2184 c4 -52 13 -55 13 -6 0 23 -4 42 -8 42 -5 0 -7 -16 -5 -36z"/>
<path d="M4818 2130 c2 -16 6 -30 8 -30 2 0 4 14 4 30 0 17 -4 30 -8 30 -5 0
-7 -13 -4 -30z"/>
<path d="M690 2074 c0 -16 -6 -36 -12 -43 -11 -11 -10 -13 2 -9 22 7 37 55 22
70 -9 9 -12 5 -12 -18z"/>
<path d="M3890 2039 c0 -5 -4 -8 -9 -4 -5 3 -12 1 -16 -5 -4 -6 -11 -8 -16 -5
-5 4 -12 -1 -16 -10 -3 -10 0 -21 7 -25 7 -4 9 -13 5 -20 -5 -8 -4 -11 3 -6 5
3 12 0 15 -6 2 -7 11 2 21 20 9 18 28 38 42 44 18 8 21 14 12 20 -19 11 -48
10 -48 -3z m-17 -54 c-7 -21 -13 -19 -13 6 0 11 4 18 10 14 5 -3 7 -12 3 -20z"/>
<path d="M695 2010 c-3 -5 -1 -10 4 -10 6 0 11 5 11 10 0 6 -2 10 -4 10 -3 0
-8 -4 -11 -10z"/>
<path d="M4125 1990 c-3 -5 -1 -10 4 -10 6 0 11 5 11 10 0 6 -2 10 -4 10 -3 0
-8 -4 -11 -10z"/>
<path d="M670 1979 c0 -5 4 -8 9 -4 5 3 11 -5 14 -17 3 -21 4 -21 12 -4 5 12
3 21 -6 27 -19 12 -29 11 -29 -2z"/>
<path d="M4001 1933 c-12 -32 -26 -67 -31 -78 -5 -11 -28 -65 -50 -120 -55
-131 -138 -291 -170 -325 -14 -15 -31 -38 -38 -51 -7 -13 -38 -51 -67 -83 -60
-65 -66 -90 -9 -35 137 132 289 409 378 688 23 73 13 76 -13 4z"/>
<path d="M3825 1940 c3 -5 8 -10 11 -10 2 0 4 5 4 10 0 6 -5 10 -11 10 -5 0
-7 -4 -4 -10z"/>
<path d="M4745 1920 c-3 -5 -1 -10 4 -10 6 0 11 5 11 10 0 6 -2 10 -4 10 -3 0
-8 -4 -11 -10z"/>
<path d="M3815 1890 c-20 -31 -43 -110 -34 -116 9 -5 13 2 23 48 3 14 12 28
19 30 9 2 11 12 7 28 -5 20 -8 22 -15 10z"/>
<path d="M4880 1870 c0 -8 5 -22 10 -30 9 -13 10 -13 10 0 0 8 -5 22 -10 30
-9 13 -10 13 -10 0z"/>
<path d="M4647 1803 c-3 -16 -1 -35 4 -43 7 -12 9 -11 9 5 1 11 3 30 6 43 2
12 0 22 -5 22 -5 0 -11 -12 -14 -27z"/>
<path d="M4905 1810 c-3 -5 1 -10 10 -10 9 0 13 5 10 10 -3 6 -8 10 -10 10 -2
0 -7 -4 -10 -10z"/>
<path d="M1000 1801 c0 -6 4 -13 10 -16 6 -3 7 1 4 9 -7 18 -14 21 -14 7z"/>
<path d="M4590 1759 c0 -11 5 -17 10 -14 6 3 10 13 10 21 0 8 -4 14 -10 14 -5
0 -10 -9 -10 -21z"/>
<path d="M3750 1728 c-11 -18 -20 -38 -20 -44 0 -6 -23 -43 -50 -82 -28 -40
-45 -72 -38 -72 14 0 64 71 98 138 43 87 49 124 10 60z"/>
<path d="M1031 1726 c-23 -42 19 -196 54 -196 8 0 15 5 15 10 0 6 -4 10 -10
10 -11 0 -25 47 -21 73 1 9 -3 17 -8 17 -6 0 -11 7 -11 16 0 8 5 12 10 9 13
-8 12 2 -3 48 l-13 37 -13 -24z m19 -39 c0 -5 -4 -5 -10 -2 -5 3 -10 14 -10
23 0 15 2 15 10 2 5 -8 10 -19 10 -23z"/>
<path d="M4636 1731 c-4 -7 -5 -15 -2 -18 9 -9 19 4 14 18 -4 11 -6 11 -12 0z"/>
<path d="M1110 1693 c0 -12 5 -25 10 -28 13 -8 13 15 0 35 -8 12 -10 11 -10
-7z"/>
<path d="M720 1628 c10 -29 25 -69 34 -88 12 -29 15 -31 16 -12 0 22 -54 152
-64 152 -3 0 3 -24 14 -52z"/>
<path d="M4617 1674 c-4 -4 -7 -14 -7 -23 0 -11 3 -12 11 -4 6 6 10 16 7 23
-2 6 -7 8 -11 4z"/>
<path d="M4666 1628 c-62 -137 -96 -217 -95 -229 0 -15 44 69 73 141 47 116
55 140 51 140 -2 0 -15 -24 -29 -52z"/>
<path d="M271 1634 c0 -11 3 -14 6 -6 3 7 2 16 -1 19 -3 4 -6 -2 -5 -13z"/>
<path d="M4583 1580 c-11 -25 -26 -63 -34 -85 -7 -22 -17 -46 -22 -52 -6 -8
-6 -13 0 -13 13 0 86 168 80 183 -3 7 -13 -8 -24 -33z"/>
<path d="M3613 1573 c-7 -3 -13 -12 -13 -21 0 -15 2 -15 17 1 18 18 16 27 -4
20z"/>
<path d="M1660 1550 c0 -5 7 -10 15 -10 8 0 15 5 15 10 0 6 -7 10 -15 10 -8 0
-15 -4 -15 -10z"/>
<path d="M3890 1544 c0 -8 5 -12 10 -9 6 4 8 11 5 16 -9 14 -15 11 -15 -7z"/>
<path d="M3942 1529 c-7 -11 -11 -23 -9 -25 7 -7 29 24 25 36 -2 6 -9 1 -16
-11z"/>
<path d="M4315 1520 c-3 -5 -1 -10 4 -10 6 0 11 5 11 10 0 6 -2 10 -4 10 -3 0
-8 -4 -11 -10z"/>
<path d="M4510 1515 c-7 -9 -11 -18 -8 -20 3 -3 11 1 18 10 7 9 11 18 8 20 -3
3 -11 -1 -18 -10z"/>
<path d="M770 1490 c0 -5 5 -10 11 -10 5 0 7 5 4 10 -3 6 -8 10 -11 10 -2 0
-4 -4 -4 -10z"/>
<path d="M3902 1459 c-7 -12 -11 -24 -7 -27 7 -8 25 17 25 36 0 17 -3 15 -18
-9z"/>
<path d="M3825 1433 c-14 -21 -25 -42 -25 -48 0 -9 9 3 45 58 26 41 9 32 -20
-10z"/>
<path d="M3865 1440 c-3 -5 -1 -10 4 -10 6 0 11 5 11 10 0 6 -2 10 -4 10 -3 0
-8 -4 -11 -10z"/>
<path d="M4497 1375 c-9 -13 -13 -26 -9 -29 9 -5 39 41 31 48 -2 2 -12 -6 -22
-19z"/>
<path d="M630 1365 c0 -3 11 -23 24 -44 14 -21 31 -54 39 -74 15 -35 34 -54
44 -43 4 3 -1 14 -9 23 -8 10 -29 44 -47 75 -29 52 -51 79 -51 63z"/>
<path d="M4147 1334 c-10 -13 -13 -24 -8 -24 10 0 36 39 29 45 -2 2 -11 -8
-21 -21z"/>
<path d="M4166 1308 c-9 -12 -16 -29 -16 -37 0 -17 22 10 33 42 9 23 1 21 -17
-5z"/>
<path d="M3803 1303 c-15 -5 -17 -23 -4 -23 5 0 11 7 15 15 3 8 4 15 3 14 -1
0 -8 -3 -14 -6z"/>
<path d="M3726 1291 c-4 -5 -2 -20 3 -33 9 -21 10 -21 10 10 1 32 -3 39 -13
23z"/>
<path d="M777 1240 c41 -52 67 -68 38 -22 -24 37 -57 72 -67 72 -5 0 8 -22 29
-50z"/>
<path d="M4430 1258 c0 -36 4 -35 14 5 4 16 2 27 -4 27 -5 0 -10 -14 -10 -32z"/>
<path d="M3770 1255 c-7 -9 -10 -18 -7 -21 3 -3 10 4 17 15 13 25 8 27 -10 6z"/>
<path d="M3380 1249 c0 -5 5 -7 10 -4 6 3 10 8 10 11 0 2 -4 4 -10 4 -5 0 -10
-5 -10 -11z"/>
<path d="M4100 1219 c-50 -59 -50 -72 0 -21 23 23 40 47 38 52 -2 6 -19 -8
-38 -31z"/>
<path d="M3420 1185 c-35 -35 -62 -67 -59 -69 2 -3 35 26 73 65 38 38 64 69
60 69 -5 0 -38 -29 -74 -65z"/>
<path d="M3550 1231 c-6 -12 -7 -21 -1 -21 10 0 24 30 17 37 -2 3 -9 -5 -16
-16z"/>
<path d="M1320 1196 c0 -8 5 -18 10 -21 6 -3 10 1 10 9 0 8 -4 18 -10 21 -5 3
-10 -1 -10 -9z"/>
<path d="M3191 1144 c-56 -37 -100 -69 -97 -71 4 -4 126 62 166 90 11 8 17 17
13 20 -3 4 1 7 10 7 10 0 17 5 17 10 0 6 -2 10 -4 10 -2 0 -49 -30 -105 -66z"/>
<path d="M4403 1183 c-4 -10 -25 -42 -47 -72 -103 -141 -301 -356 -328 -356
-5 0 -12 -5 -16 -10 -12 -18 -120 -96 -247 -179 -118 -78 -160 -109 -120 -88
11 5 40 19 65 31 162 77 405 271 541 432 85 100 185 259 163 259 -2 0 -8 -8
-11 -17z"/>
<path d="M510 1184 c0 -6 7 -19 16 -30 14 -18 14 -18 3 6 -14 31 -19 36 -19
24z"/>
<path d="M3510 1139 c-35 -28 -76 -59 -90 -67 -14 -9 -45 -37 -70 -62 -146
-144 -710 -374 -998 -406 -34 -3 -65 -10 -67 -15 -6 -9 3 -10 110 -10 116 -1
129 0 121 8 -3 4 -28 6 -53 4 -52 -2 -55 7 -4 14 18 2 44 6 59 10 15 3 41 7
57 9 125 17 372 117 619 250 114 61 294 204 370 294 29 34 15 27 -54 -29z"/>
<path d="M3798 1169 c-19 -11 -24 -29 -8 -29 5 0 14 9 20 20 12 23 12 23 -12
9z"/>
<path d="M3145 1157 c-10 -8 -14 -16 -9 -19 5 -3 17 3 27 14 20 21 9 24 -18 5z"/>
<path d="M3642 1134 c-23 -19 -42 -32 -42 -28 0 4 8 13 18 21 16 13 16 14 -3
11 -13 -2 -22 -13 -25 -30 -3 -17 -41 -65 -100 -125 -52 -53 -81 -89 -65 -79
17 10 46 35 66 55 20 20 49 45 65 56 16 11 51 43 77 70 81 83 87 116 9 49z"/>
<path d="M864 1142 c22 -26 33 -28 33 -7 0 8 -4 15 -8 15 -4 0 -16 3 -26 7
-17 6 -17 5 1 -15z"/>
<path d="M560 1146 c0 -13 62 -98 67 -92 3 3 -4 20 -16 39 -21 35 -51 65 -51
53z"/>
<path d="M3064 1096 c-27 -19 -77 -48 -111 -65 -34 -17 -64 -35 -68 -41 -9
-15 41 -23 75 -12 47 17 102 63 91 76 -7 8 2 19 29 36 22 14 40 28 40 32 0 12
-5 10 -56 -26z m-84 -90 c-14 -7 -36 -16 -50 -20 -14 -3 -7 3 15 14 45 22 74
27 35 6z"/>
<path d="M4068 1123 c7 -3 16 -2 19 1 4 3 -2 6 -13 5 -11 0 -14 -3 -6 -6z"/>
<path d="M550 1114 c0 -5 9 -20 20 -34 14 -18 20 -21 20 -9 0 9 -9 24 -20 34
-11 10 -20 14 -20 9z"/>
<path d="M3900 1099 c0 -5 5 -7 10 -4 6 3 10 8 10 11 0 2 -4 4 -10 4 -5 0 -10
-5 -10 -11z"/>
<path d="M4084 1085 c-15 -22 -15 -26 0 -40 15 -15 17 -15 32 -1 8 9 12 16 8
16 -3 0 -2 6 4 13 8 9 6 16 -8 25 -17 10 -22 8 -36 -13z"/>
<path d="M4200 1093 c0 -8 -44 -56 -75 -81 -20 -17 -10 -33 18 -28 14 2 24 13
29 33 8 32 33 50 43 32 13 -20 23 2 12 26 -11 24 -27 34 -27 18z"/>
<path d="M3870 1069 c0 -5 5 -7 10 -4 6 3 10 8 10 11 0 2 -4 4 -10 4 -5 0 -10
-5 -10 -11z"/>
<path d="M3250 1049 c0 -5 5 -7 10 -4 6 3 10 8 10 11 0 2 -4 4 -10 4 -5 0 -10
-5 -10 -11z"/>
<path d="M3285 1040 c-10 -11 -14 -20 -8 -20 5 0 18 9 28 20 10 11 14 20 8 20
-5 0 -18 -9 -28 -20z"/>
<path d="M3895 1040 c-10 -11 -16 -22 -13 -25 3 -3 13 6 22 20 20 30 16 32 -9
5z"/>
<path d="M660 1010 c6 -11 15 -18 21 -14 6 4 6 11 -2 20 -17 21 -31 17 -19 -6z"/>
<path d="M730 1011 c11 -22 30 -37 30 -24 -1 11 -26 43 -34 43 -4 0 -2 -9 4
-19z"/>
<path d="M3903 1007 c-34 -38 -65 -87 -55 -87 12 0 86 99 80 105 -3 3 -14 -5
-25 -18z"/>
<path d="M2768 973 c-10 -2 -18 -8 -18 -13 0 -10 38 -1 46 11 5 9 1 10 -28 2z"/>
<path d="M705 960 c-3 -5 -1 -10 4 -10 6 0 11 5 11 10 0 6 -2 10 -4 10 -3 0
-8 -4 -11 -10z"/>
<path d="M2850 960 c-8 -5 -12 -12 -9 -15 8 -8 39 5 39 16 0 11 -11 11 -30 -1z"/>
<path d="M3347 950 c-39 -24 -46 -34 -17 -25 24 8 56 33 49 39 -2 2 -16 -4
-32 -14z"/>
<path d="M4107 931 c-15 -15 -25 -30 -21 -34 8 -8 64 41 64 55 0 14 -14 7 -43
-21z"/>
<path d="M2897 912 c-19 -21 -22 -32 -7 -32 10 0 34 39 27 46 -2 2 -11 -4 -20
-14z"/>
<path d="M1315 910 c-7 -12 44 -38 68 -34 27 4 34 14 11 14 -11 0 -29 7 -40
15 -23 17 -31 18 -39 5z"/>
<path d="M2725 901 c-3 -5 -1 -12 5 -16 5 -3 10 1 10 9 0 18 -6 21 -15 7z"/>
<path d="M3739 850 c-30 -33 -54 -66 -54 -73 -1 -18 -15 -37 -28 -37 -7 0 -4
7 6 14 10 8 14 17 8 20 -5 3 -22 -5 -38 -18 -60 -50 -311 -162 -655 -291 -71
-27 -126 -50 -123 -53 7 -7 85 -9 85 -2 0 4 10 5 23 3 19 -4 49 2 168 31 76
19 328 137 354 167 27 29 1 24 -48 -10 -58 -39 -86 -53 -124 -62 -54 -12 -37
4 59 51 136 68 152 74 145 57 -17 -44 125 42 189 115 11 12 46 45 77 72 44 38
54 52 46 63 -19 23 -34 15 -90 -47z m71 46 c0 -2 -7 -9 -15 -16 -13 -11 -14
-10 -9 4 5 14 24 23 24 12z m-190 -191 c-17 -21 -80 -58 -86 -52 -3 3 7 12 23
20 15 8 37 24 47 36 21 24 36 20 16 -4z m-365 -185 c9 -15 -71 -46 -139 -55
-33 -4 -70 -11 -83 -16 -13 -5 -23 -6 -23 -4 0 6 42 23 73 29 16 3 124 40 164
55 1 1 5 -4 8 -9z"/>
<path d="M4092 878 c-34 -24 -46 -27 -57 -18 -12 10 -17 8 -24 -11 -5 -13 -10
-20 -10 -15 -1 4 -31 -22 -67 -58 -93 -94 -177 -157 -194 -146 -10 6 -21 3
-32 -7 -9 -8 -24 -13 -33 -9 -10 3 -47 -11 -88 -34 -40 -21 -95 -44 -124 -50
-28 -6 -59 -18 -69 -25 -18 -14 -18 -14 3 -15 12 0 25 4 28 10 3 5 14 10 23
10 10 -1 0 -10 -20 -21 -21 -11 -38 -22 -38 -24 0 -6 40 10 101 41 64 32 146
57 159 49 16 -10 52 6 47 20 -7 16 12 35 32 35 14 0 14 -2 1 -10 -8 -5 -12
-11 -9 -14 3 -4 46 25 96 62 49 37 105 75 124 84 19 9 45 27 59 40 13 13 28
22 32 21 4 -2 10 6 13 17 4 11 9 20 13 20 11 0 87 68 82 72 -3 3 -24 -8 -48
-24z"/>
<path d="M2824 886 c-10 -8 -16 -17 -12 -21 7 -7 48 16 48 27 0 12 -14 9 -36
-6z"/>
<path d="M2670 870 c-13 -9 -13 -10 0 -10 8 0 22 5 30 10 13 9 13 10 0 10 -8
0 -22 -5 -30 -10z"/>
<path d="M902 850 c7 -10 14 -18 15 -16 6 6 -9 36 -18 36 -5 0 -4 -9 3 -20z"/>
<path d="M1392 858 c5 -14 89 -81 128 -101 14 -7 63 -33 110 -57 47 -24 96
-45 110 -47 17 -2 21 -1 11 6 -19 13 0 21 43 18 69 -6 35 10 -50 23 -79 11
-203 59 -212 82 -2 4 -7 8 -12 8 -5 0 -22 14 -38 30 -17 17 -40 30 -51 30 -12
0 -21 5 -21 10 0 6 -5 10 -11 10 -6 0 -9 -6 -7 -12z"/>
<path d="M3200 850 c-12 -8 -11 -10 7 -10 12 0 25 5 28 10 8 13 -15 13 -35 0z"/>
<path d="M1960 836 c0 -9 30 -14 35 -6 4 6 -3 10 -14 10 -12 0 -21 -2 -21 -4z"/>
<path d="M1082 819 c2 -7 10 -15 17 -17 8 -3 12 1 9 9 -2 7 -10 15 -17 17 -8
3 -12 -1 -9 -9z"/>
<path d="M3115 809 c-56 -29 -68 -44 -20 -24 22 9 47 22 55 30 20 20 12 19
-35 -6z"/>
<path d="M3876 821 c-4 -7 -5 -15 -2 -18 9 -9 19 4 14 18 -4 11 -6 11 -12 0z"/>
<path d="M1130 803 c1 -11 50 -46 50 -35 0 10 -33 42 -43 42 -4 0 -7 -3 -7 -7z"/>
<path d="M3845 790 c-3 -5 -1 -10 4 -10 6 0 11 5 11 10 0 6 -2 10 -4 10 -3 0
-8 -4 -11 -10z"/>
<path d="M2470 769 c0 -5 5 -7 10 -4 6 3 10 8 10 11 0 2 -4 4 -10 4 -5 0 -10
-5 -10 -11z"/>
<path d="M3220 755 c7 -9 15 -13 17 -11 7 7 -7 26 -19 26 -6 0 -6 -6 2 -15z"/>
<path d="M1215 750 c3 -5 8 -10 11 -10 2 0 4 5 4 10 0 6 -5 10 -11 10 -5 0 -7
-4 -4 -10z"/>
<path d="M2425 750 c-3 -5 1 -10 9 -10 8 0 18 5 21 10 3 6 -1 10 -9 10 -8 0
-18 -4 -21 -10z"/>
<path d="M910 741 c0 -5 7 -14 15 -21 16 -14 18 -10 9 14 -6 17 -24 22 -24 7z"/>
<path d="M2717 743 c-9 -2 -15 -8 -12 -13 6 -10 45 -1 45 11 0 9 -4 10 -33 2z"/>
<path d="M3138 743 c-15 -4 -35 -33 -22 -33 9 0 64 30 64 35 0 6 -17 5 -42 -2z"/>
<path d="M1202 724 c10 -10 20 -15 24 -12 3 4 -5 12 -18 18 -22 12 -22 12 -6
-6z"/>
<path d="M1290 730 c0 -5 5 -10 10 -10 6 0 10 5 10 10 0 6 -4 10 -10 10 -5 0
-10 -4 -10 -10z"/>
<path d="M1160 722 c0 -5 6 -17 14 -28 19 -25 31 -12 14 15 -13 21 -28 28 -28
13z"/>
<path d="M2325 720 c3 -5 8 -10 11 -10 2 0 4 5 4 10 0 6 -5 10 -11 10 -5 0 -7
-4 -4 -10z"/>
<path d="M2642 719 c-13 -5 -21 -13 -17 -19 7 -11 55 8 55 22 0 10 -8 9 -38
-3z"/>
<path d="M2269 715 c-3 -2 -41 -7 -84 -11 -44 -3 -83 -9 -88 -13 -8 -8 21 -7
120 4 35 4 65 11 68 16 6 9 -8 13 -16 4z"/>
<path d="M2900 712 c0 -14 11 -21 26 -15 8 3 11 9 8 14 -7 11 -34 12 -34 1z"/>
<path d="M3134 705 c-16 -12 -16 -14 -3 -15 9 0 22 7 29 15 16 19 0 19 -26 0z"/>
<path d="M3015 700 c-18 -8 -17 -9 8 -9 15 -1 27 4 27 9 0 12 -8 12 -35 0z"/>
<path d="M3163 690 c-31 -12 -29 -28 2 -23 28 6 57 33 34 32 -8 0 -24 -4 -36
-9z"/>
<path d="M3405 690 c-3 -5 -1 -10 4 -10 6 0 11 5 11 10 0 6 -2 10 -4 10 -3 0
-8 -4 -11 -10z"/>
<path d="M3044 660 c-23 -10 -45 -23 -49 -29 -8 -14 75 17 95 35 19 19 4 16
-46 -6z"/>
<path d="M2180 659 c-14 -4 -18 -8 -10 -9 30 -4 85 2 100 11 18 11 -50 9 -90
-2z"/>
<path d="M1355 640 c23 -25 84 -64 91 -57 5 5 -91 77 -103 77 -3 0 2 -9 12
-20z"/>
<path d="M1932 648 c3 -8 27 -11 73 -9 107 4 116 20 12 21 -64 0 -88 -3 -85
-12z"/>
<path d="M2642 630 c-18 -4 -36 -10 -39 -14 -13 -13 4 -15 47 -5 25 6 62 12
83 14 21 2 41 6 44 9 9 9 -96 5 -135 -4z"/>
<path d="M2928 614 c-27 -14 -38 -34 -19 -34 13 0 57 37 51 43 -3 3 -17 -1
-32 -9z"/>
<path d="M1170 600 c0 -6 7 -10 15 -10 8 0 15 2 15 4 0 2 -7 6 -15 10 -8 3
-15 1 -15 -4z"/>
<path d="M2855 593 c-40 -10 -39 -23 1 -22 21 0 33 3 26 6 -6 2 -10 9 -6 14 3
5 4 8 2 8 -2 -1 -12 -3 -23 -6z"/>
<path d="M3603 529 c-45 -29 -41 -33 7 -8 22 12 40 23 40 25 0 9 -16 3 -47
-17z"/>
<path d="M3510 480 c-8 -5 -11 -12 -7 -16 4 -4 15 0 24 9 18 18 8 23 -17 7z"/>
<path d="M3575 480 c-3 -5 -1 -10 4 -10 6 0 11 5 11 10 0 6 -2 10 -4 10 -3 0
-8 -4 -11 -10z"/>
<path d="M1740 471 c0 -5 5 -13 10 -16 6 -3 10 -2 10 4 0 5 -4 13 -10 16 -5 3
-10 2 -10 -4z"/>
<path d="M3430 444 l-25 -15 25 5 c14 3 28 6 33 6 4 0 7 5 7 10 0 14 -10 12
-40 -6z"/>
<path d="M2800 440 c-12 -8 -12 -10 5 -10 11 0 27 5 35 10 12 8 12 10 -5 10
-11 0 -27 -5 -35 -10z"/>
<path d="M1800 430 c0 -5 5 -10 11 -10 5 0 7 5 4 10 -3 6 -8 10 -11 10 -2 0
-4 -4 -4 -10z"/>
<path d="M3520 425 c-16 -9 -19 -14 -9 -15 8 0 24 7 35 15 24 18 7 19 -26 0z"/>
<path d="M2808 413 c7 -3 16 -2 19 1 4 3 -2 6 -13 5 -11 0 -14 -3 -6 -6z"/>
<path d="M3185 360 c-3 -5 1 -10 9 -10 9 0 16 5 16 10 0 6 -4 10 -9 10 -6 0
-13 -4 -16 -10z"/>
<path d="M3074 351 c-10 -11 -2 -18 19 -16 12 1 30 3 40 4 9 0 17 5 17 11 0 9
-66 10 -76 1z"/>
<path d="M3540 320 c0 -5 4 -10 9 -10 6 0 13 5 16 10 3 6 -1 10 -9 10 -9 0
-16 -4 -16 -10z"/>
<path d="M2600 260 c0 -5 5 -10 10 -10 6 0 10 5 10 10 0 6 -4 10 -10 10 -5 0
-10 -4 -10 -10z"/>
</g>
</svg>
